<svg width="157" height="136" viewBox="0 0 157 136" fill="none" xmlns="http://www.w3.org/2000/svg">
<path d="M28.9567 115.604L17.9373 8.5H139.063L128.029 115.587L78.4264 127.5L28.9567 115.604Z" fill="#1572B6"/>
<path d="M78.5 118.397L118.584 108.77L128.014 17.2593H78.5V118.397Z" fill="#33A9DC"/>
<path d="M78.5 56.0618H98.5666L99.9501 42.6105H78.5V29.4738H78.554H116.523L116.16 32.997L112.437 69.1985H78.5V56.0618Z" fill="white"/>
<path d="M78.5932 90.1765L78.5245 90.1935L61.6372 86.241L60.5578 75.7648H52.3497H45.3337L47.4581 96.39L78.5196 103.862L78.5932 103.845V90.1765Z" fill="#EBEBEB"/>
<path d="M97.2763 68.6417L95.4512 86.2325L78.5393 90.185V103.853L109.625 96.39L109.856 94.1715L112.491 68.6417H97.2763Z" fill="white"/>
<path d="M78.554 29.4738V37.6338V42.5765V42.6105H41.973H41.924L41.6198 39.6568L40.928 32.997L40.5649 29.4738H78.554Z" fill="#EBEBEB"/>
<path d="M78.5 56.0618V64.2218V69.1645V69.1985H61.8727H61.8236L61.5194 66.2448L60.8325 59.585L60.4695 56.0618H78.5Z" fill="#EBEBEB"/>
</svg>
