<svg width="164" height="181" viewBox="0 0 164 181" fill="none" xmlns="http://www.w3.org/2000/svg">
<path d="M82 79.7347C90.2745 79.7347 96.9823 73.6653 96.9823 66.1783C96.9823 58.6914 90.2745 52.6219 82 52.6219C73.7255 52.6219 67.0177 58.6914 67.0177 66.1783C67.0177 73.6653 73.7255 79.7347 82 79.7347Z" fill="#61DAFB"/>
<path d="M82 116.031C93.7603 126.38 105.36 132.503 114.703 132.503C117.764 132.503 120.664 131.92 123.081 130.608C131.458 126.235 134.519 115.302 131.619 99.705C131.136 96.9354 130.491 94.1658 129.686 91.2504C132.908 90.3758 135.807 89.5012 138.707 88.6266C154.978 82.9417 164 75.0702 164 66.4699C164 57.7239 154.978 49.8524 138.707 44.3133C135.807 43.2929 132.908 42.4183 129.686 41.6894C130.491 38.7741 131.136 36.0045 131.619 33.2349C134.358 17.3462 131.297 6.26789 122.919 1.89486C120.503 0.582949 117.603 -0.00012207 114.542 -0.00012207C105.36 -0.00012207 93.5992 6.12212 81.8389 16.4716C70.2397 6.12212 58.6405 -0.00012207 49.2967 -0.00012207C46.2358 -0.00012207 43.336 0.582949 40.9194 1.89486C32.5422 6.26789 29.4813 17.2005 32.3811 32.7976C32.8644 35.5672 33.5088 38.3368 34.3143 41.2521C31.0923 42.1267 28.1925 43.0013 25.2927 43.876C9.02161 49.5609 0 57.4324 0 66.0326C0 74.7787 9.02161 82.6502 25.2927 88.1893C28.1925 89.2097 31.0923 90.0843 34.3143 90.8132C33.5088 93.7285 32.8644 96.4981 32.3811 99.2677C29.6424 114.865 32.7033 125.943 40.9194 130.17C43.336 131.482 46.2358 132.065 49.2967 132.065C58.6405 132.357 70.2397 126.235 82 116.031ZM72.9784 96.3523C75.8782 96.4981 78.9391 96.4981 82 96.4981C85.0609 96.4981 88.1218 96.4981 91.0216 96.3523C88.1218 99.8507 85.0609 103.058 82 106.119C78.9391 103.058 75.8782 99.8507 72.9784 96.3523ZM53.002 81.3383C54.613 83.8163 56.0629 86.1486 57.835 88.4809C52.8409 87.8978 48.169 87.169 43.6582 86.2944C45.1081 82.3586 46.7191 78.2771 48.6523 74.1956C49.9411 76.5279 51.391 79.006 53.002 81.3383ZM43.6582 46.2082C48.169 45.3336 52.8409 44.6048 57.835 44.0217C56.224 46.354 54.613 48.6863 53.002 51.1643C51.391 53.6424 49.9411 55.9747 48.6523 58.4527C46.558 54.2255 44.947 50.144 43.6582 46.2082ZM52.5187 66.1784C54.613 62.2427 56.8684 58.307 59.446 54.3712C61.8625 50.5813 64.6012 46.7913 67.3399 43.0013C72.1729 42.7098 77.0059 42.564 82 42.564C87.1552 42.564 91.9882 42.7098 96.6601 43.0013C99.5599 46.7913 102.138 50.5813 104.554 54.3712C107.132 58.307 109.387 62.2427 111.481 66.1784C109.387 70.1141 107.132 74.0499 104.554 77.9856C102.138 81.7756 99.3988 85.5655 96.6601 89.3555C91.8271 89.647 86.9941 89.7928 82 89.7928C76.8448 89.7928 72.0118 89.647 67.3399 89.3555C64.4401 85.5655 61.8625 81.7756 59.446 77.9856C56.8684 74.0499 54.613 70.1141 52.5187 66.1784ZM115.509 58.307L111.159 51.0186C109.548 48.5405 108.098 46.2082 106.326 43.876C111.32 44.459 115.992 45.1879 120.503 46.0625C119.053 50.144 117.442 54.2255 115.509 58.307ZM115.509 74.0499C117.442 78.1314 119.053 82.2129 120.503 86.1486C115.992 87.0232 111.32 87.752 106.326 88.3351C107.937 86.0028 109.548 83.6705 111.159 81.1925C112.609 79.006 114.059 76.5279 115.509 74.0499ZM119.214 124.631C117.925 125.36 116.314 125.652 114.542 125.652C106.648 125.652 96.8212 119.821 87.1552 111.075C91.8271 106.556 96.3379 101.454 100.849 95.7693C108.42 95.1862 115.67 94.1658 122.436 92.7081C123.242 95.3319 123.725 97.9558 124.208 100.58C126.464 112.97 124.692 121.862 119.214 124.631ZM127.591 47.8117C145.635 52.4763 156.428 59.6189 156.428 66.1784C156.428 71.8634 149.018 77.5483 135.969 82.0671C133.391 82.9417 130.491 83.8163 127.591 84.5451C125.497 78.5687 122.919 72.4464 119.697 66.1784C122.919 59.9104 125.658 53.7882 127.591 47.8117ZM114.703 6.70519C116.475 6.70519 117.925 6.99673 119.375 7.72557C124.692 10.4952 126.625 19.2412 124.369 31.7772C123.886 34.2553 123.242 36.8791 122.597 39.6487C115.831 38.3368 108.582 37.3164 101.01 36.5876C96.6601 30.9026 91.9882 25.8008 87.3163 21.282C96.9823 12.6817 106.809 6.70519 114.703 6.70519ZM91.0216 36.0045C88.1218 35.8587 85.0609 35.8587 82 35.8587C78.9391 35.8587 75.8782 35.8587 72.9784 36.0045C75.8782 32.5061 78.9391 29.2992 82 26.2381C85.0609 29.2992 88.1218 32.6518 91.0216 36.0045ZM44.7859 7.72557C46.0747 6.99673 47.6857 6.70519 49.4578 6.70519C57.3517 6.70519 67.1788 12.5359 76.8448 21.282C72.1729 25.8008 67.6621 30.9026 63.1513 36.5876C55.5796 37.1706 48.3301 38.191 41.5639 39.6487C40.7584 37.0249 40.275 34.4011 39.7917 31.7772C37.5363 19.387 39.3084 10.6409 44.7859 7.72557ZM36.4086 84.5451C18.3654 79.8806 7.57171 72.738 7.57171 66.1784C7.57171 60.4935 14.9823 54.8085 28.0314 50.2897C30.609 49.4151 33.5088 48.5405 36.4086 47.8117C38.5029 53.7882 41.0805 59.9104 44.3026 66.1784C41.0805 72.4464 38.3418 78.7144 36.4086 84.5451ZM39.7917 100.58C40.275 98.1015 40.9195 95.4777 41.5639 92.7081C48.3301 94.02 55.5796 95.0404 63.1513 95.7693C67.501 101.454 72.1729 106.556 76.8448 111.075C67.1788 119.675 57.3517 125.652 49.4578 125.652C47.6857 125.652 46.2358 125.36 44.7859 124.631C39.3084 121.862 37.5363 112.97 39.7917 100.58ZM33.0255 160.636C36.5697 156.7 36.7308 152.327 34.7976 147.954C32.8644 143.581 28.8369 141.54 23.8428 141.395C17.8821 141.249 11.7603 141.395 5.79961 141.395H4.67191V179.148H9.50491V164.863H17.0766C18.0432 164.863 18.8487 165.155 19.332 165.884L28.998 179.44C29.1591 179.731 29.6424 180.169 29.9646 180.169H36.2475C32.3811 174.775 28.6758 169.673 24.8094 164.426C28.1925 163.989 31.0923 162.968 33.0255 160.636ZM9.50491 160.344V145.913H11.277C14.9823 145.913 18.8487 145.768 22.554 146.059C26.9037 146.205 29.9646 149.266 29.9646 153.202C29.9646 157.137 26.4204 160.199 22.0707 160.344C18.2043 160.49 14.3379 160.344 9.50491 160.344ZM71.8507 162.239C69.2731 152.036 58.9627 149.412 51.0688 152.619C44.947 155.097 42.2083 159.907 42.0472 165.884C41.8861 170.402 43.336 174.484 47.2024 177.545C51.5521 181.043 56.8684 181.481 62.3458 180.606C65.4067 180.023 68.1454 178.711 70.2397 176.67C69.4342 175.65 68.6287 174.63 67.8232 173.755C63.3124 177.253 58.3183 178.42 52.8409 176.087C49.2967 174.484 47.5246 170.548 47.2024 167.633H72.1729V165.738C72.334 164.426 72.1729 163.26 71.8507 162.239ZM47.5246 164.572C47.0413 160.199 51.8743 155.534 57.1906 155.534C63.3124 155.388 67.1788 158.741 67.3399 164.572H47.5246ZM96.9823 151.89C94.5658 151.453 91.9882 151.307 89.5717 151.453C85.7053 151.744 82.3222 153.347 79.5835 155.971C80.389 156.992 81.0334 158.012 82 159.178C82.3222 158.887 82.6444 158.595 82.9666 158.449C85.5442 156.263 88.6051 155.097 92.3104 155.388C95.2102 155.534 97.9489 156.409 98.7544 159.032C99.3988 161.073 99.2377 163.26 99.3988 165.446C98.9155 165.446 98.7544 165.3 98.5933 165.155C94.7269 162.239 90.3772 161.656 85.7053 162.677C81.3556 163.697 78.6169 166.758 78.2947 170.694C77.9725 175.213 80.2279 178.565 84.5776 180.169C87.3163 181.189 90.3772 181.189 93.277 180.606C95.5324 180.169 96.499 179.003 99.721 177.399V179.294H104.232C104.232 173.463 104.393 166.321 104.232 159.615C104.232 155.388 101.493 152.764 96.9823 151.89ZM99.2377 170.257C99.0766 170.694 99.2377 171.131 99.2377 171.568C99.2377 174.63 98.4322 175.65 95.2102 176.816C92.9548 177.545 90.5383 177.836 88.1218 177.108C85.3831 176.379 83.4499 174.192 83.4499 171.714C83.2888 169.236 85.0609 166.758 87.7996 166.029C91.5049 164.863 94.888 165.592 97.9489 167.633C98.9155 168.362 99.5599 169.09 99.2377 170.257ZM124.369 155.826C128.558 154.659 132.424 155.388 135.324 158.595L135.807 158.887C136.935 158.012 137.902 157.137 139.191 156.117C138.707 155.68 138.546 155.388 138.224 154.951C133.552 150.432 124.369 149.849 118.731 153.493C110.837 158.741 110.998 168.945 114.864 174.338C118.57 179.44 123.886 181.189 130.169 180.46C133.874 180.023 136.935 178.42 139.352 175.65C138.224 174.775 137.096 173.901 135.969 172.88C135.646 173.172 135.485 173.318 135.324 173.609C130.974 177.982 123.725 177.545 119.859 172.88C117.603 170.111 117.12 166.904 117.764 163.697C118.086 160.053 120.181 157.137 124.369 155.826ZM157.878 175.65C157.556 175.796 157.395 175.941 157.395 175.941C156.106 176.816 154.817 176.962 153.367 176.525C151.917 175.941 151.756 174.775 151.595 173.609V156.992C151.595 156.7 151.595 157.283 151.756 155.826H157.878V151.453H151.434V144.164H146.601V152.036H142.413C142.09 152.036 141.607 152.327 141.607 152.619C141.446 153.639 141.607 154.368 141.607 155.826H146.762V174.484C146.762 176.816 147.407 178.857 149.662 180.023C152.079 181.335 156.75 181.043 158.845 179.44C159.167 179.294 159.328 178.711 159.328 178.565C158.845 177.691 158.361 176.67 157.878 175.65Z" fill="#61DAFB"/>
</svg>
