<svg width="161" height="202" viewBox="0 0 161 202" fill="none" xmlns="http://www.w3.org/2000/svg">
<g clip-path="url(#clip0_11_108)">
<path d="M157.693 82.0001C157.693 115.646 123.059 142.947 80.3127 142.947C37.5666 142.947 2.93286 115.646 2.93286 82.0001C2.93286 48.3541 37.5666 21.0527 80.3127 21.0527C123.059 21.0527 157.693 48.3541 157.693 82.0001Z" fill="#D33833"/>
<path d="M6.11553 97.0928C6.11553 97.0928 0.499248 33.5499 76.5686 31.7234L71.2644 24.8981L30.0159 35.5687L18.2217 45.9989L7.92522 61.1877L2.05933 78.8759L3.80661 90.7001" fill="#EF3D3A"/>
<path d="M27.3325 40.4233C13.791 51.142 5.36656 65.8981 5.36656 82.2405C5.36656 98.5828 13.791 113.339 27.3325 124.058C40.9363 134.776 59.5949 141.361 80.3127 141.361C101.031 141.361 119.689 134.776 133.293 124.058C146.834 113.339 155.259 98.5828 155.259 82.2405C155.259 65.8981 146.834 51.142 133.293 40.4233C119.689 29.7527 101.031 23.1196 80.3127 23.1196C59.6573 23.1196 40.9363 29.7046 27.3325 40.4233ZM23.9003 126.605C9.48517 115.262 0.561523 99.5442 0.561523 82.2405C0.561523 64.9368 9.48517 49.2193 23.9003 37.8278C38.3154 26.4842 58.2844 19.4186 80.3127 19.4186C102.341 19.4186 122.31 26.4842 136.725 37.8278C151.14 49.1713 160.064 64.8888 160.064 82.2405C160.064 99.5442 151.14 115.262 136.725 126.605C122.31 137.997 102.341 145.014 80.3127 145.014C58.2844 145.014 38.3154 137.997 23.9003 126.605Z" fill="#231F20"/>
<path d="M112.887 82.3366L101.093 83.6824L85.1803 85.0763L74.8838 85.2686L64.8369 85.0283L57.1613 83.2018L50.3594 77.53L45.0551 65.9462L43.8695 63.4467L36.8179 61.6202L32.6993 56.3811L29.7664 48.8828L33.0113 42.2978L40.6869 40.231L46.8648 42.4901L49.7978 47.4889L53.3547 47.0563L54.5404 45.9027L53.3547 40.6636L53.0427 34.0786L54.79 24.9942L54.7276 19.8031L60.0943 13.17L69.5171 7.93082L85.9916 2.49939L104.276 4.56622L120.188 13.4103L127.552 22.4947L132.295 29.0797L133.48 45.4221L129.923 59.5053L123.433 72.0024L117.318 78.6836" fill="#F0D6B7"/>
<path d="M102.903 121.606L60.7807 122.952V128.384L64.3377 147.466L62.5904 149.052L33.1362 141.313L31.0768 138.574L28.1439 112.906L21.2172 97.5254L19.7195 93.8724L43.3079 81.3753L50.6714 79.1162L57.1613 85.2686L62.7776 89.1139L69.2675 90.7001L72.2005 91.373L75.7575 103.197L78.4408 105.697L85.2427 103.87L80.5001 110.936L106.085 120.26L102.903 121.606Z" fill="#335061"/>
<path d="M33.0113 42.394L40.6869 40.3271L46.8648 42.5862L49.7978 47.5851L53.3548 47.1525L54.2284 44.4127L52.4811 39.1735L54.2284 26.6765L52.7307 19.8511L58.035 15.0926L69.5172 8.07502L66.2722 4.66235L50.0474 10.8148L43.2455 14.9004L39.4389 21.245L33.573 27.3974L31.8257 34.6554L33.0113 42.394Z" fill="#6D6B6D"/>
<path d="M45.1174 21.0527C45.1174 21.0527 49.548 12.6412 67.2081 8.55565C84.8681 4.47007 68.0817 5.62364 68.0817 5.62364L48.924 11.2954L41.5604 16.9672L38.3154 21.4853L45.1174 21.0527Z" fill="#DCD9D8"/>
<path d="M36.2563 40.8078C36.2563 40.8078 30.0784 24.898 53.6668 22.6389L52.7931 19.8992L36.5683 22.8312L31.8257 34.6553L33.0113 42.3939L36.2563 40.8078Z" fill="#DCD9D8"/>
<path d="M45.679 61.9086L49.5479 59.0247C49.5479 59.0247 51.2952 59.1689 51.6072 60.755C51.9193 62.3412 52.7929 76.6648 65.4607 84.3553C66.6464 85.0763 56.0379 83.2017 56.0379 83.2017L46.615 71.8582" fill="#F7E4CD"/>
<path d="M99.9073 57.5828C99.9073 57.5828 100.594 50.7094 103.027 51.2381C105.461 51.7668 105.461 53.6414 105.461 53.6414C105.461 53.6414 99.5953 56.5253 99.9073 57.5828Z" fill="#F7E4CD"/>
<path d="M124.369 32.3962C124.369 32.3962 119.502 33.1653 119.065 36.4818C118.628 39.7984 124.369 37.1547 125.243 36.9144" fill="#F7E4CD"/>
<path d="M88.7372 32.6366C88.7372 32.6366 82.2473 33.3095 82.2473 36.4819C82.2473 39.6542 89.6109 39.4139 91.6702 38.068" fill="#F7E4CD"/>
<path d="M48.6744 47.3929C48.6744 47.3929 37.5042 42.1537 36.3185 47.1525C35.1329 52.1514 32.5119 55.7563 38.0658 60.9955L34.2592 60.0822L30.7023 53.0646L29.5166 46.2393L36.3185 40.8079L43.9941 41.2405L48.4247 43.9802L48.6744 47.3929Z" fill="#F7E4CD"/>
<path d="M53.9787 33.0692C53.9787 33.0692 58.9709 13.0739 84.3066 9.22861C105.149 6.05627 116.132 9.90153 120.251 13.5545C120.251 13.5545 101.655 -3.46074 83.9946 1.73036C66.3345 6.96952 53.3546 16.4865 53.6666 22.5909C54.1659 33.0692 53.9787 33.0692 53.9787 33.0692Z" fill="#F7E4CD"/>
<path d="M122.31 15.8136C122.31 15.8136 113.761 15.5733 113.449 21.4854C113.449 21.4854 113.449 22.3986 114.01 23.3119C114.01 23.3119 120.812 17.3998 124.931 20.5721" fill="#F7E4CD"/>
<path d="M84.9307 23.9367C84.9307 23.9367 83.433 14.9003 73.4485 20.1395C66.9586 23.5522 67.5826 28.3107 68.7059 29.2239C69.8915 30.1372 69.5795 31.9637 70.4532 30.714C71.3268 29.4642 71.0772 25.3787 74.3221 24.2251C77.5047 23.0715 82.8714 21.8218 84.9307 23.9367Z" fill="#F7E4CD"/>
<path d="M57.2236 85.2686L29.5166 94.7856C29.5166 94.7856 40.9988 129.97 35.1329 140.881L31.0143 139.727L30.7023 126.317L23.0267 100.938L19.7817 93.9205L48.6744 78.924L57.2236 85.2686Z" fill="#49728B"/>
<path d="M60.0319 104.735L63.9633 108.436V122.039H59.2831C59.2831 122.039 58.7214 112.522 58.7214 111.368C58.7214 110.215 59.2831 106.129 59.2831 106.129" fill="#49728B"/>
<path d="M60.1566 124.106L46.8647 124.538L50.6713 126.605L60.0942 127.759" fill="#49728B"/>
<path d="M105.524 121.847L116.444 121.606L119.128 142.467L107.957 143.62L105.524 121.847Z" fill="#335061"/>
<path d="M108.457 121.847L124.931 121.174C124.931 121.174 131.733 108.004 131.733 107.331C131.733 106.658 137.599 88.2487 137.599 88.2487L124.307 77.5781L121.624 75.7516L114.572 81.183V102.284L108.457 121.847Z" fill="#335061"/>
<path d="M115.82 120.26L105.524 121.847L107.021 128.191C110.828 129.537 117.318 125.932 117.318 125.932" fill="#49728B"/>
<path d="M116.132 80.5101L136.788 92.3343L137.349 86.9029L121.748 75.7997L116.132 80.5101Z" fill="#49728B"/>
<path d="M70.3907 166.548L64.2752 147.466L61.2175 133.382L60.7183 122.952L88.3628 121.799H105.524L103.964 145.639L106.647 164.048L106.335 167.461L83.9322 168.807L70.3907 166.548Z" fill="white"/>
<path d="M101.717 121.606C101.717 121.606 100.219 145.207 104.65 162.03C104.65 162.03 95.7888 166.356 82.8713 167.461L107.645 166.788L110.578 165.442L107.021 128.239L106.085 120.26" fill="#DCD9D8"/>
<path d="M119.564 140.688L131.046 138.189L152.825 137.276L156.07 129.537L150.204 116.127L143.402 115.454L133.979 117.713L124.993 121.126L120.188 120.453L116.444 121.606" fill="white"/>
<path d="M119.377 136.122C119.377 136.122 127.053 133.382 128.238 133.623L124.993 121.126L128.8 119.972C128.8 119.972 131.483 131.796 131.483 133.142C131.483 133.142 147.958 133.815 149.455 133.815C149.455 133.815 153.012 128.576 152.139 123.144L155.384 130.402L155.696 134.488L150.953 139.919L145.649 140.833L136.788 140.592L133.855 137.66L123.558 138.814L120.313 139.727" fill="#DCD9D8"/>
<path d="M107.77 120.02L101.28 107.331L94.4783 99.8325C94.4783 99.8325 95.9759 96.6602 98.0352 96.6602H104.837L111.327 98.4867L110.765 106.898L107.77 120.02Z" fill="white"/>
<path d="M109.081 115.694C109.081 115.694 100.843 103.437 100.843 101.611C100.843 101.611 102.341 98.8712 104.4 99.5441C106.46 100.217 110.89 102.044 110.89 102.044V97.7176L100.843 96.1315L94.0415 96.8044L105.524 117.761L107.895 118.001" fill="#DCD9D8"/>
<path d="M73.0115 85.7493L64.8367 85.0764L57.1611 83.2499V85.3167L60.9053 88.489L72.6995 92.5746" fill="white"/>
<path d="M59.8447 86.4222C59.8447 86.4222 68.9555 89.3542 71.9509 88.6813L72.2629 91.4211L64.0257 90.0752L59.0334 87.3355L59.8447 86.4222Z" fill="#DCD9D8"/>
<path d="M119.564 97.4292C114.572 97.3331 110.017 96.8524 106.085 95.9872C106.335 94.7375 105.836 93.5359 106.273 92.6226C107.396 91.9978 109.205 91.9978 110.89 91.8536C109.455 91.3248 107.396 91.0845 105.773 91.421C105.711 90.5558 105.212 90.0271 104.9 89.3541C107.708 88.5851 114.323 83.5382 118.067 85.1724C119.876 85.9895 120.625 90.5077 120.75 92.7668C120.875 94.5933 120.5 96.4198 119.564 97.4292Z" fill="#D33833"/>
<path d="M119.564 97.4292C114.572 97.3331 110.017 96.8524 106.085 95.9872C106.335 94.7375 105.836 93.5359 106.273 92.6226C107.396 91.9978 109.205 91.9978 110.89 91.8536C109.455 91.3248 107.396 91.0845 105.773 91.421C105.711 90.5558 105.212 90.0271 104.9 89.3541C107.708 88.5851 114.323 83.5382 118.067 85.1724C119.876 85.9895 120.625 90.5077 120.75 92.7668C120.875 94.5933 120.5 96.4198 119.564 97.4292Z" fill="black" stroke="#D33833" stroke-width="2"/>
<path d="M95.6639 91.1326C95.6639 91.421 95.6639 91.7094 95.6015 91.9978C94.0415 92.7668 91.5453 92.7668 89.798 93.4397C92.2942 93.5359 94.2911 94.0165 96.0383 94.6414C95.9759 95.3624 95.9759 96.1314 95.9135 96.8524C93.043 98.3424 90.4221 100.602 87.0523 102.044C85.4298 102.716 79.8759 104.447 78.1911 104.11C77.255 103.918 77.1302 103.005 76.7558 102.14C75.9445 100.313 74.0725 97.3331 73.8852 94.5453C73.698 91.0365 73.1988 85.1244 78.1287 85.8453C82.1225 86.4221 86.7403 87.816 89.798 89.1138C91.7325 89.979 92.7934 90.9403 95.6639 91.1326Z" fill="#D33833"/>
<path d="M95.6639 91.1326C95.6639 91.421 95.6639 91.7094 95.6015 91.9978C94.0415 92.7668 91.5453 92.7668 89.798 93.4397C92.2942 93.5359 94.2911 94.0165 96.0383 94.6414C95.9759 95.3624 95.9759 96.1314 95.9135 96.8524C93.043 98.3424 90.4221 100.602 87.0523 102.044C85.4298 102.716 79.8759 104.447 78.1911 104.11C77.255 103.918 77.1302 103.005 76.7558 102.14C75.9445 100.313 74.0725 97.3331 73.8852 94.5453C73.698 91.0365 73.1988 85.1244 78.1287 85.8453C82.1225 86.4221 86.7403 87.816 89.798 89.1138C91.7325 89.979 92.7934 90.9403 95.6639 91.1326Z" fill="black" stroke="#D33833" stroke-width="2"/>
<path d="M98.4721 95.3143C98.0353 93.3917 97.5361 92.863 97.7233 91.1807C104.4 87.768 105.586 97.0447 98.4721 95.3143Z" fill="#D33833"/>
<path d="M98.4721 95.3143C98.0353 93.3917 97.5361 92.863 97.7233 91.1807C104.4 87.768 105.586 97.0447 98.4721 95.3143Z" fill="black" stroke="#D33833" stroke-width="2"/>
<path d="M108.082 96.8525C108.082 96.8525 106.023 94.5934 107.52 93.9204C109.018 93.2475 110.453 93.9204 111.327 92.7669C112.201 91.6133 111.327 90.9404 111.639 89.5945C111.951 88.2487 113.386 88.0084 114.884 87.768C116.382 87.5277 120.5 87.0951 121.062 88.2006L119.315 84.115L115.758 83.2018L104.588 88.2006L104.026 90.7V95.6989" fill="#EF3D3A"/>
<path d="M77.1302 104.351C76.7557 100.794 76.3813 97.285 76.0069 93.7281C75.3829 88.4409 77.6294 89.3542 83.6201 89.3542C84.5561 89.3542 89.2364 90.1713 89.5484 90.7C91.1709 93.2475 86.865 92.6707 91.4205 94.5933C95.2271 96.1795 102.029 93.632 100.469 90.0271C99.5953 89.21 95.9759 89.7868 94.6654 89.258C92.3565 88.3448 90.0476 87.4315 87.7387 86.5183C84.8057 85.3647 78.0662 83.6343 74.946 85.2686C67.0209 89.4022 75.4453 99.7844 78.2534 104.11" fill="#EF3D3A"/>
<path d="M84.9305 23.9367C76.8805 22.4948 72.8867 26.5323 70.4529 30.714C68.2688 30.3295 69.1425 28.0223 69.7041 26.8688C71.1394 23.8406 76.9429 19.755 81.6855 20.3318C83.6824 20.5241 86.4281 21.966 84.9305 23.9367Z" fill="#231F20"/>
<path d="M124.057 30.9543H124.432C126.241 33.8383 127.801 36.9145 130.11 39.51C128.55 42.2979 118.503 44.7011 118.628 39.7984C120.812 39.0775 124.556 39.6542 126.491 38.6929C125.368 36.3377 123.808 34.3189 124.057 30.9543Z" fill="#231F20"/>
<path d="M88.9868 31.0504C90.7341 33.5018 91.2958 36.0493 93.7295 37.8757C94.8527 38.6929 96.9744 39.7022 95.9136 42.0094C95.664 42.5381 93.8543 43.7398 92.7934 43.9801C88.9868 44.8453 80.0632 44.1724 83.0586 40.4713C86.2411 40.5674 90.4845 42.0575 92.8558 40.279C91.0461 38.068 87.8012 33.646 88.9868 31.0504Z" fill="#231F20"/>
<path d="M122.622 55.7563C116.881 58.5922 110.453 61.7164 100.968 60.9955C98.9712 59.6496 98.16 56.6215 100.157 54.6508C101.155 55.9966 100.531 58.496 103.402 58.8806C108.769 59.6015 115.009 56.3331 118.878 55.2276C121.249 52.1033 118.691 50.9978 116.507 48.979C112.076 44.8934 106.21 39.7985 106.397 33.6941C108.207 32.6847 108.332 35.2322 108.581 35.6648C110.89 39.7985 116.694 45.1338 120.875 48.6906C121.936 49.5558 123.62 50.421 123.808 50.9978C124.369 52.632 122.372 54.6508 122.622 55.7563Z" fill="#231F20"/>
<path d="M46.615 52.7762C44.8053 51.9591 44.3685 48.4984 42.2468 48.4023C39.1891 48.2581 39.7507 52.9204 39.7507 55.6602C37.6914 54.2182 37.317 49.7 38.8146 47.3929C37.0674 46.7199 36.3185 48.1139 35.3201 48.5945C36.6305 41.625 48.6119 45.3741 46.615 52.7762Z" fill="#231F20"/>
<path d="M126.241 58.6882C123.558 62.6296 119.752 66.9555 111.889 67.0997C111.702 65.85 111.577 63.8793 111.889 63.1103C117.942 62.6296 121.686 60.2744 126.241 58.6882Z" fill="#231F20"/>
<path d="M88.5498 61.2357C93.5421 63.2545 102.778 63.4948 109.642 63.3506C110.016 64.5042 110.016 65.9462 110.016 67.3401C101.218 67.6285 90.8587 65.9462 88.5498 61.2357Z" fill="#231F20"/>
<path d="M87.6139 64.9849C91.1085 71.7141 103.027 70.945 113.074 70.7528C112.638 71.6179 111.702 72.6754 110.453 73.0118C107.209 74.0212 98.3473 74.7903 93.8542 72.9638C91.0461 71.8102 89.174 69.1666 87.6139 67.6285C86.9275 66.9075 83.1833 65.0329 87.6139 64.9849Z" fill="#231F20"/>
<path d="M122.185 102.044C118.129 107.427 114.198 112.955 109.393 117.665C111.389 113.099 112.263 105.408 112.575 99.5442C116.819 98.0061 120.438 99.8806 122.185 102.044Z" fill="#81B0C4"/>
<path d="M144.089 121.366C139.533 122.087 136.351 125.5 131.858 125.259C134.354 122.616 138.597 121.462 144.089 121.366Z" fill="#231F20"/>
<path d="M146.086 126.846C142.341 127.134 137.973 127.615 134.229 127.374C136.039 125.259 142.903 126.028 146.086 126.846Z" fill="#231F20"/>
<path d="M147.396 131.604C143.215 131.652 138.036 131.604 134.042 131.364C136.413 129.393 144.713 130.643 147.396 131.604Z" fill="#231F20"/>
<path d="M114.322 144.582C114.946 148.619 117.006 152.705 116.756 157.127C114.447 157.704 113.137 158.232 110.017 158.232C109.829 154.483 109.143 148.715 109.33 145.11C110.828 145.207 113.074 144.293 114.322 144.582Z" fill="#DCD9D8"/>
<path d="M107.583 84.9802C105.461 86.0377 103.714 87.3354 101.655 88.489C97.1616 88.6813 94.7279 88.2487 91.4829 86.278C91.5453 86.1338 91.8573 86.1819 91.8573 85.9896C96.6624 87.6238 102.778 85.3167 107.583 84.9802Z" fill="#F0D6B7"/>
<path d="M82.4968 110.119C83.8073 105.745 88.9867 103.437 93.667 101.034C98.472 105.745 101.405 111.801 104.65 117.665C96.9743 115.886 89.174 113.051 82.4968 110.119Z" fill="#81B0C4"/>
<path d="M109.33 145.159C109.143 148.763 109.767 154.483 110.017 158.281C113.137 158.281 114.447 157.752 116.756 157.175C117.006 152.753 114.947 148.667 114.322 144.63C113.074 144.293 110.828 145.207 109.33 145.159ZM61.1551 124.779C63.2144 139.246 66.1473 151.359 71.5764 164.193C83.6202 167.028 98.0977 167.269 108.769 164.721C106.834 157.511 107.645 148.715 106.522 140.977C105.648 135.161 106.085 129.345 104.9 123.433C91.9822 121.366 73.7605 122.952 61.1551 124.779ZM107.957 123.529C107.833 129.729 108.332 135.882 108.956 142.082C112.076 141.746 114.135 141.506 117.006 140.977C116.07 135.017 116.195 128.239 114.26 122.952C112.076 123 110.141 122.952 107.957 123.529ZM123.621 122.52C122.123 122.279 120.438 122.52 119.065 122.52C119.752 127.567 121.312 133.142 121.873 138.477C124.057 138.525 125.243 137.708 127.053 137.468C127.178 132.806 126.554 126.365 123.621 122.52ZM147.396 139.246C152.014 138.381 154.885 134.055 153.574 129.585C152.7 126.605 151.203 120.933 149.518 119.011C148.332 117.617 145.025 115.742 142.341 117.04C138.036 119.155 130.485 119.78 127.365 122.327C128.925 126.365 129.424 131.844 130.048 136.939C135.415 137.18 141.967 135.786 146.46 137.276C143.34 138.045 139.346 138.045 136.663 139.198C138.909 140.016 144.026 139.871 147.396 139.246ZM104.588 117.665C101.343 111.801 98.4097 105.745 93.6047 101.034C88.9244 103.438 83.8074 105.745 82.4345 110.119C89.174 113.051 96.9744 115.887 104.588 117.665ZM112.575 99.5442C112.263 105.408 111.39 113.099 109.393 117.665C114.198 112.906 118.129 107.427 122.185 102.044C120.438 99.8806 116.819 98.0061 112.575 99.5442ZM103.527 97.0928C101.717 96.9486 100.157 98.7271 97.7857 97.958C97.2241 98.4387 96.7248 98.9193 96.1632 99.4C101.405 104.303 103.839 111.224 107.895 116.944C110.079 111.416 109.829 105.408 110.329 99.4C107.333 99.4961 105.648 97.237 103.527 97.0928ZM97.7233 91.1807C97.5361 92.8631 98.0353 93.3918 98.4721 95.3144C105.586 97.0448 104.4 87.7681 97.7233 91.1807ZM89.7981 89.162C86.7403 87.8642 82.1225 86.4703 78.1287 85.8935C73.1989 85.1725 73.6981 91.0846 73.8853 94.5934C74.0725 97.3812 75.9446 100.313 76.7558 102.188C77.1302 103.053 77.2551 103.966 78.1911 104.158C79.876 104.447 85.4923 102.765 87.0523 102.092C90.4221 100.698 93.043 98.4387 95.9136 96.9006C95.976 96.1796 95.976 95.4105 96.0384 94.6895C94.2911 94.0166 92.3566 93.584 89.7981 93.4879C91.483 92.815 94.0415 92.815 95.6016 92.0459C95.6016 91.7575 95.6016 91.4691 95.664 91.1807C92.7934 90.9404 91.7326 89.9791 89.7981 89.162ZM60.4686 85.0764C57.9101 87.0952 67.645 89.7868 70.7027 89.931C70.7027 88.6813 71.6388 87.4797 71.4516 86.5664C67.7698 86.0858 62.9647 86.4222 60.4686 85.0764ZM91.9198 85.9896C91.9198 86.1819 91.6078 86.1338 91.5454 86.278C94.8527 88.2487 97.2865 88.6813 101.717 88.4891C103.714 87.3836 105.524 86.0377 107.645 84.9803C102.778 85.3167 96.6624 87.6239 91.9198 85.9896ZM120.75 92.7188C120.625 90.5078 119.876 85.9416 118.067 85.1245C114.323 83.4422 107.708 88.5371 104.9 89.3062C105.212 89.9791 105.711 90.5078 105.773 91.373C107.458 91.0366 109.455 91.2769 110.89 91.8056C109.205 91.9498 107.396 91.9498 106.272 92.5747C105.898 93.4879 106.397 94.6895 106.085 95.9393C110.017 96.8044 114.572 97.237 119.564 97.3812C120.5 96.4199 120.875 94.5934 120.75 92.7188ZM56.1628 86.999C55.3516 86.5664 49.9225 81.135 49.1737 81.3753C39.3764 84.3554 30.2031 89.4984 22.0283 94.4011C29.8287 107.331 33.0113 123.144 33.5729 138.381C42.4965 141.602 50.3593 146.264 62.5279 146.745C61.0927 139.102 59.8446 132.229 59.0334 125.019C55.9756 124.01 51.6074 125.067 48.7368 124.731C48.7368 122.087 53.1051 123.577 53.4795 121.799C53.7291 120.453 51.0458 120.357 51.9194 118.242C54.1659 118.867 55.3516 120.261 57.7229 120.789C59.907 117.136 57.7229 110.647 58.0349 107.571C58.0973 106.994 58.4093 104.399 60.0942 104.831C61.5919 105.216 60.0318 111.801 60.1566 114.685C60.2814 117.377 59.7198 119.924 61.1551 121.606C72.8868 120.357 84.8058 119.588 97.5361 119.299C94.7279 118.386 91.4206 117.521 87.8012 115.935C85.8043 115.069 79.6264 113.291 79.0647 111.849C78.1287 109.542 81.4361 108.34 81.9977 106.37C76.0694 108.869 74.9461 103.966 73.5109 100.554C72.2628 97.4293 71.514 95.0741 71.202 93.2956C66.0225 91.2769 60.531 89.4023 56.1628 86.999ZM115.571 82.0002C123.745 78.972 125.243 93.3918 121.998 98.0541C122.497 99.4481 124.182 99.9768 124.869 101.226C120.313 107.523 115.259 113.387 110.578 119.588C114.01 117.905 119.003 119.299 123.059 118.049C124.557 117.617 125.617 114.973 126.741 112.858C129.861 107.09 133.106 99.7845 134.541 94.305C134.853 93.0553 135.789 90.3156 135.54 89.2101C135.165 87.1913 131.671 85.7013 129.861 84.4996C126.553 82.1925 124.494 80.2218 121 78.0588C119.689 79.645 116.694 80.7024 115.571 82.0002ZM37.5043 26.1959C33.6353 29.5124 34.4465 35.6648 34.8834 40.0869C41.9349 36.6742 51.233 40.3753 51.1706 46.1432C54.5403 46.0951 52.4186 42.9227 51.7946 40.8559C49.7977 34.1748 55.1644 26.9649 52.0442 20.8606C45.9911 21.2451 41.0613 23.1197 37.5043 26.1959ZM65.3361 7.01765C56.5372 8.94028 45.2423 13.891 41.6229 19.9954C44.431 19.6589 46.3655 18.6015 49.1113 18.4573C50.1721 18.4092 51.545 18.7938 52.7306 18.5534C55.102 18.0728 57.1613 13.9391 58.971 12.401C60.7182 10.911 62.8399 10.2381 64.2752 8.89221C65.2113 8.55575 66.5841 8.55575 66.6465 7.4983C66.2721 7.16184 65.8353 6.92151 65.3361 7.01765ZM111.202 8.84414C102.029 4.85469 86.5531 1.87461 76.8182 5.62374C68.9554 8.65188 58.3469 13.6507 54.7275 19.9473C58.0973 26.0517 53.7291 31.6273 53.4171 37.8278C53.2923 41.1443 55.414 43.9802 55.6012 47.5851C54.4155 49.0752 50.921 49.2194 48.4872 49.1232C47.676 45.9509 46.2407 42.394 41.9973 42.0095C36.0066 41.4808 31.576 45.326 31.3264 49.3155C31.0144 54.0259 36.0066 61.8126 43.1206 61.2839C45.8663 61.0916 46.5527 58.9767 49.5481 58.9767C51.1706 61.4761 47.052 62.2452 46.6151 64.0236C46.4903 64.5043 46.9272 66.2827 47.2392 67.1479C48.5496 71.2335 51.4202 76.5688 54.2283 79.693C57.8477 83.6825 64.8992 84.2593 72.5124 84.6438C73.8853 82.3847 78.8775 82.577 82.1225 83.1538C78.1911 81.9521 74.5717 79.0682 71.5764 76.5207C68.1442 73.5887 64.6496 70.4644 64.4624 66.6192C71.0147 73.5887 76.3814 79.693 88.238 82.7692C97.2241 85.0764 107.708 81.7118 114.635 77.9627C117.505 76.4246 119.19 73.9251 121.249 71.7141C128.862 63.2546 132.419 51.2381 131.671 39.5581C131.359 34.7516 131.359 29.945 129.237 26.7246C127.053 23.36 119.627 20.2838 115.259 23.36C114.447 20.0435 118.878 18.0247 124.057 19.2263C120.376 15.5253 116.507 11.1513 111.202 8.84414ZM128.301 117.521C135.477 114.781 148.831 110.167 153.262 117.521C154.947 120.261 156.881 124.827 157.693 127.663C158.878 131.604 156.382 139.967 151.078 141.265C146.398 142.419 140.969 142.371 135.352 141.506C134.666 141.073 133.979 140.352 133.418 139.583C129.424 139.487 125.617 139.727 122.497 141.025C122.809 143.332 120.812 143.669 118.878 144.149C117.505 148.427 121.686 154.003 120.688 157.848C120.001 160.636 115.571 161.068 112.326 161.549C112.201 163.087 112.45 164.385 112.7 165.683C111.951 167.798 108.644 168.999 105.461 169.288C95.0399 170.249 79.252 170.681 69.2675 167.894C66.4593 162.606 64.2752 156.214 61.9663 150.205C52.2314 151.023 44.3062 146.985 36.8803 144.293C34.3217 143.38 30.7648 142.851 29.7663 141.265C28.8303 139.727 29.2047 136.795 28.9551 134.055C28.3934 126.99 27.8318 120.164 25.4605 112.955C24.3996 109.686 22.4651 106.85 21.1547 103.726C19.9066 100.842 17.7849 97.237 17.2233 94.3531C16.412 90.0752 21.6539 89.8349 24.9613 87.9603C30.1407 85.0764 34.1969 83.4902 39.8132 80.8947C41.4981 80.1256 46.4903 78.203 47.052 77.2897C48.1752 75.5113 45.1175 73.0119 44.3062 71.618C42.9958 69.407 42.3093 67.5324 42.1221 65.3694C37.4419 64.7927 33.8225 62.6297 31.7008 60.2264C28.1438 56.1889 25.6477 48.7387 28.7679 43.115C29.0175 42.6824 30.2031 41.7692 30.3903 41.0962C30.7648 39.7504 29.7039 37.972 29.6415 36.53C29.3295 29.1759 31.264 22.8313 37.6915 20.6202C40.3124 12.5933 49.6729 9.94966 58.4717 5.9602C61.7791 4.47016 65.3985 3.50885 69.1427 2.4514C82.5593 -1.34579 103.215 -0.624805 114.385 5.86407C119.128 8.60382 126.678 14.4198 129.362 18.6496C136.538 29.7527 135.976 48.3542 130.984 61.9087C130.298 63.7352 129.362 66.3788 127.989 68.5899C127.053 70.128 124.12 73.1561 124.432 74.5019C124.806 75.8958 131.171 79.5969 132.544 80.6063C134.978 82.4328 139.658 84.8361 140.033 87.1432C140.469 89.5946 138.66 92.9592 137.724 95.3144C134.728 103.197 131.733 110.455 128.301 117.521Z" fill="#231F20"/>
<path d="M80.5625 62.9181C80.9369 62.5336 83.0586 61.9087 86.0539 63.0142C86.0539 63.0142 82.497 63.4468 82.809 68.0131L81.3113 67.7727C81.3737 67.8208 79.8136 63.6871 80.5625 62.9181Z" fill="#F7E4CD"/>
<path d="M106.397 101.947C106.397 102.62 105.648 103.197 104.775 103.197C103.901 103.197 103.152 102.62 103.152 101.947C103.152 101.275 103.901 100.698 104.775 100.698C105.711 100.698 106.397 101.275 106.397 101.947Z" fill="#1D1919"/>
<path d="M108.02 107.763C108.02 108.436 107.271 109.013 106.397 109.013C105.524 109.013 104.775 108.436 104.775 107.763C104.775 107.09 105.524 106.514 106.397 106.514C107.333 106.514 108.02 107.042 108.02 107.763Z" fill="#1D1919"/>
<path d="M23.0267 181.304C22.5275 181.352 22.0907 181.4 21.7163 181.448C21.3419 181.496 20.9674 181.544 20.4682 181.64C19.9066 181.737 19.5946 181.929 19.4698 182.217C19.345 182.506 19.2201 182.794 19.2201 183.179V194.907C19.2201 195.964 18.9081 196.973 18.3465 197.887C17.7849 198.8 17.036 199.521 16.0376 200.146C15.0391 200.722 13.9159 201.203 12.6678 201.492C11.4198 201.78 10.1093 201.972 8.73643 201.972C6.30271 201.972 4.36821 201.54 2.87054 200.626C1.37286 199.713 0.624023 198.511 0.624023 196.925C0.624023 196.012 0.936039 195.243 1.62247 194.618C2.30891 193.993 3.24495 193.705 4.43061 193.705C5.55387 193.705 6.42751 193.945 7.11395 194.474C7.80038 195.003 8.1124 195.628 8.1124 196.349C8.1124 196.973 7.80038 197.598 7.23875 198.127C6.67712 198.656 5.99069 199.184 5.24185 199.617V199.809C5.36666 200.002 5.61627 200.194 5.99069 200.338C6.36511 200.482 6.80193 200.53 7.17635 200.53C8.73643 200.53 9.98449 200.098 10.8581 199.232C11.7318 198.367 12.1686 197.069 12.1686 195.339V183.323C12.1686 182.986 12.1062 182.65 11.9814 182.409C11.8566 182.169 11.4822 181.977 10.9205 181.785C10.5461 181.64 10.0469 181.544 9.48526 181.448C8.92364 181.352 8.48681 181.304 8.1124 181.256V180.102H22.8395V181.304H23.0267Z" fill="#231F20"/>
<path d="M46.1159 197.839C45.6791 198.415 45.1174 198.944 44.4934 199.473C43.8694 200.002 43.1205 200.386 42.3093 200.771C41.4356 201.155 40.562 201.443 39.6884 201.636C38.8147 201.828 37.7539 201.924 36.6306 201.924C34.6961 201.924 33.0736 201.732 31.6384 201.299C30.2655 200.867 29.0798 200.338 28.2062 199.617C27.2701 198.896 26.6461 198.079 26.1469 197.118C25.7101 196.156 25.4604 195.099 25.4604 193.993C25.4604 192.984 25.7101 191.975 26.2093 191.061C26.7085 190.148 27.3949 189.283 28.2686 188.562C29.1422 187.841 30.2655 187.264 31.6384 186.831C33.0112 186.399 34.5089 186.159 36.1314 186.159C37.9411 186.159 39.4387 186.351 40.6244 186.687C41.8101 187.024 42.7461 187.504 43.4949 188.081C44.2438 188.658 44.743 189.331 45.1174 190.1C45.4294 190.869 45.6166 191.686 45.6166 192.551V193.513H32.4496C32.4496 195.579 32.9488 197.118 34.0097 198.175C35.0081 199.232 36.693 199.761 38.8771 199.761C40.1252 199.761 41.186 199.521 42.1845 198.992C43.1829 198.463 43.9942 197.839 44.6806 197.021L46.1159 197.839ZM38.6899 192.119C38.6899 191.542 38.6275 190.917 38.5651 190.292C38.5027 189.667 38.3779 189.139 38.1283 188.754C37.8787 188.273 37.6291 187.937 37.1922 187.697C36.8178 187.456 36.3186 187.36 35.757 187.36C34.7585 187.36 33.9473 187.745 33.3856 188.514C32.7616 189.283 32.4496 190.533 32.3872 192.215L38.6899 192.119Z" fill="#231F20"/>
<path d="M73.6356 201.395H61.9038V200.29C62.1534 200.29 62.4655 200.242 62.7775 200.194C63.1519 200.146 63.4015 200.098 63.5887 200.05C63.8383 199.953 64.0255 199.761 64.1504 199.569C64.2752 199.377 64.3376 199.04 64.3376 198.656V191.638C64.3376 190.629 64.0879 189.86 63.5887 189.331C63.0895 188.802 62.4031 188.562 61.4046 188.562C60.9054 188.562 60.4062 188.61 59.9693 188.754C59.5325 188.85 59.0957 189.043 58.6589 189.283C58.2845 189.475 57.9724 189.667 57.7228 189.908C57.4732 190.1 57.286 190.292 57.1612 190.485V198.512C57.1612 198.848 57.2236 199.136 57.3484 199.377C57.4732 199.617 57.7228 199.809 57.9724 199.905C58.1597 200.002 58.4093 200.098 58.7213 200.146C59.0333 200.194 59.3453 200.242 59.6573 200.29V201.395H47.8007V200.29C48.1128 200.29 48.4248 200.242 48.7992 200.194C49.1112 200.146 49.4232 200.098 49.6728 200.05C50.1097 199.953 50.3593 199.761 50.5465 199.521C50.6713 199.281 50.7961 198.992 50.7961 198.608V189.86C50.7961 189.571 50.6713 189.235 50.4841 188.946C50.2969 188.658 49.9848 188.418 49.6728 188.225C49.4232 188.129 49.1736 187.985 48.7992 187.937C48.4248 187.841 48.0503 187.793 47.6135 187.793V186.687L56.9116 186.303L57.2236 186.543V188.706H57.286C57.6604 188.466 58.0972 188.177 58.5965 187.793C59.0957 187.456 59.5949 187.168 60.0317 186.928C60.531 186.687 61.155 186.495 61.9038 186.303C62.6527 186.111 63.5263 186.062 64.4 186.062C66.5217 186.062 68.0817 186.543 69.1426 187.456C70.2034 188.37 70.7027 189.619 70.7027 191.157V198.512C70.7027 198.896 70.7651 199.184 70.8899 199.377C71.0147 199.617 71.3267 199.761 71.7011 199.905C71.8883 199.953 72.1379 200.05 72.45 200.098C72.762 200.146 73.074 200.194 73.5108 200.242V201.395H73.6356Z" fill="#231F20"/>
<path d="M100.469 201.395H91.2956C90.1724 199.857 89.1115 198.56 88.1755 197.502C87.2394 196.445 86.3658 195.435 85.5545 194.57L84.4313 195.339V198.608C84.4313 198.944 84.4937 199.281 84.6185 199.473C84.7433 199.713 84.9929 199.857 85.4297 200.001C85.6793 200.098 85.9289 200.146 86.241 200.194C86.553 200.242 86.865 200.29 87.177 200.29V201.395H75.0708V200.29C75.3828 200.29 75.6948 200.242 76.0693 200.194C76.3813 200.146 76.6933 200.098 76.9429 200.05C77.3797 199.953 77.6293 199.761 77.8165 199.521C77.9414 199.281 78.0662 198.992 78.0662 198.608V181.881C78.0662 181.544 77.9414 181.208 77.7541 180.871C77.5669 180.535 77.3173 180.246 76.9429 180.054C76.6933 179.958 76.3189 179.814 75.8196 179.766C75.3204 179.67 74.8836 179.622 74.4468 179.622V178.516L84.1193 178.132L84.4313 178.372V193.849C85.3673 193.176 86.4906 192.407 87.6762 191.542C88.8619 190.677 89.8603 189.956 90.5468 189.379C90.9836 189.043 91.2332 188.802 91.2332 188.61C91.2956 188.418 91.2956 188.322 91.2956 188.273C91.2956 188.081 91.1084 187.937 90.6716 187.841C90.2348 187.745 89.6731 187.601 88.7995 187.504V186.447H98.6592V187.504C97.3487 187.793 96.3503 188.033 95.6638 188.273C94.9774 188.514 94.2286 188.85 93.4173 189.235C92.8557 189.523 92.3565 189.812 91.8572 190.1C91.358 190.388 90.7964 190.773 90.11 191.205C91.358 192.647 92.5437 193.945 93.6045 195.147C94.6654 196.349 95.7886 197.646 96.9743 198.992C97.3487 199.473 97.8479 199.761 98.472 199.953C99.096 200.098 99.6576 200.194 100.282 200.242V201.395H100.469Z" fill="#231F20"/>
<path d="M112.95 201.395H100.656V200.29C100.968 200.29 101.343 200.242 101.655 200.194C101.967 200.146 102.279 200.098 102.466 200.05C102.903 199.953 103.152 199.761 103.34 199.521C103.527 199.281 103.589 198.992 103.589 198.608V189.86C103.589 189.523 103.464 189.187 103.277 188.946C103.09 188.658 102.84 188.466 102.528 188.322C102.279 188.225 101.967 188.081 101.467 187.985C100.968 187.889 100.531 187.793 100.157 187.793V186.687L109.705 186.303L110.017 186.543V198.463C110.017 198.8 110.141 199.088 110.329 199.377C110.516 199.617 110.828 199.809 111.14 199.905C111.39 200.002 111.702 200.098 112.014 200.146C112.326 200.194 112.638 200.242 113.012 200.29V201.395H112.95ZM110.141 180.968C110.141 181.737 109.767 182.361 109.018 182.89C108.269 183.419 107.333 183.707 106.335 183.707C105.274 183.707 104.4 183.419 103.589 182.89C102.84 182.361 102.466 181.688 102.466 180.968C102.466 180.198 102.84 179.574 103.589 178.997C104.338 178.468 105.274 178.18 106.335 178.18C107.396 178.18 108.269 178.468 109.018 178.997C109.767 179.526 110.141 180.198 110.141 180.968Z" fill="#231F20"/>
<path d="M140.469 201.395H128.738V200.29C128.987 200.29 129.299 200.242 129.611 200.194C129.986 200.146 130.235 200.098 130.422 200.05C130.672 199.953 130.859 199.761 130.984 199.569C131.109 199.377 131.171 199.04 131.171 198.656V191.638C131.171 190.629 130.922 189.86 130.422 189.331C129.923 188.802 129.237 188.562 128.238 188.562C127.739 188.562 127.24 188.61 126.803 188.754C126.366 188.898 125.929 189.043 125.493 189.283C125.118 189.475 124.806 189.667 124.557 189.908C124.307 190.1 124.12 190.292 123.995 190.485V198.512C123.995 198.848 124.057 199.136 124.182 199.377C124.307 199.617 124.557 199.809 124.806 199.905C124.993 200.002 125.243 200.098 125.555 200.146C125.867 200.194 126.179 200.242 126.491 200.29V201.395H114.634V200.29C114.946 200.29 115.259 200.242 115.633 200.194C115.945 200.146 116.257 200.098 116.507 200.05C116.943 199.953 117.193 199.761 117.38 199.521C117.505 199.281 117.63 198.992 117.63 198.608V189.86C117.63 189.571 117.505 189.235 117.318 188.946C117.131 188.658 116.819 188.418 116.507 188.225C116.257 188.129 116.007 187.985 115.633 187.937C115.259 187.841 114.884 187.793 114.447 187.793V186.687L123.745 186.303L124.057 186.543V188.706H124.12C124.494 188.466 124.931 188.177 125.43 187.793C125.929 187.456 126.429 187.168 126.865 186.928C127.365 186.687 127.989 186.495 128.738 186.303C129.486 186.111 130.36 186.062 131.234 186.062C133.355 186.062 134.915 186.543 135.976 187.456C137.037 188.37 137.536 189.619 137.536 191.157V198.512C137.536 198.896 137.599 199.184 137.724 199.377C137.848 199.617 138.16 199.761 138.535 199.905C138.722 199.953 138.972 200.05 139.284 200.098C139.596 200.146 139.908 200.194 140.345 200.242V201.395H140.469Z" fill="#231F20"/>
<path d="M151.265 201.924C150.017 201.924 148.769 201.78 147.583 201.492C146.398 201.203 145.462 200.915 144.775 200.578L144.214 201.588H142.716L142.466 196.012H143.902C144.089 196.445 144.401 196.973 144.9 197.55C145.337 198.127 145.898 198.608 146.46 199.088C147.084 199.521 147.771 199.905 148.582 200.242C149.393 200.53 150.204 200.722 151.078 200.722C152.264 200.722 153.137 200.53 153.699 200.194C154.26 199.857 154.573 199.281 154.573 198.56C154.573 198.175 154.448 197.839 154.198 197.55C153.948 197.31 153.574 197.069 153.137 196.877C152.638 196.685 152.076 196.493 151.452 196.349C150.828 196.204 150.079 196.06 149.206 195.82C148.332 195.628 147.583 195.435 146.959 195.195C146.335 195.003 145.649 194.666 145.025 194.234C144.463 193.849 143.964 193.368 143.652 192.84C143.278 192.311 143.153 191.638 143.153 190.869C143.153 189.475 143.902 188.322 145.462 187.456C147.022 186.591 149.019 186.159 151.515 186.159C152.7 186.159 153.761 186.255 154.76 186.447C155.758 186.639 156.569 186.831 157.256 187.072L157.693 186.207H159.19L159.502 191.302H158.129C157.693 190.244 156.881 189.379 155.821 188.61C154.697 187.841 153.512 187.456 152.264 187.456C151.265 187.456 150.454 187.601 149.892 187.937C149.331 188.273 149.019 188.706 149.019 189.283C149.019 190.052 149.455 190.581 150.267 190.917C151.078 191.254 152.264 191.59 153.761 191.878C156.07 192.359 157.755 192.984 158.878 193.753C159.939 194.57 160.501 195.579 160.501 196.781C160.501 198.415 159.69 199.713 158.005 200.578C156.133 201.443 153.948 201.924 151.265 201.924Z" fill="#231F20"/>
</g>
<defs>
<clipPath id="clip0_11_108">
<rect width="161" height="202" fill="white"/>
</clipPath>
</defs>
</svg>
