<svg width="154" height="153" viewBox="0 0 154 153" fill="none" xmlns="http://www.w3.org/2000/svg">
<path d="M135.678 36.2586L82.6234 5.65258C79.2775 3.7592 74.921 3.7592 71.5486 5.65258L17.9278 36.2586C14.4748 38.232 12.0312 41.9411 12.0312 45.9083V107.039C12.0312 111.006 14.5386 114.716 17.9915 116.701L32.1583 124.695C38.9295 128.008 41.3225 128.008 44.4037 128.008C54.4294 128.008 60.1562 121.985 60.1562 111.48V51.1282C60.1562 50.276 59.7099 49.0078 58.8677 49.0078H52.1025C51.2459 49.0078 49.3281 50.276 49.3281 51.127V111.478C49.3281 116.135 45.0883 120.77 37.1645 116.833L22.5261 108.451C22.016 108.176 21.6562 107.622 21.6562 107.039V45.9083C21.6562 45.3322 22.324 44.7536 22.8377 44.4584L76.2853 13.905C76.7846 13.6241 77.5185 13.6241 78.0166 13.905L130.812 44.4512C131.317 44.7536 131.139 45.3142 131.139 45.9083V107.039C131.139 107.622 131.36 108.19 130.86 108.471L77.8193 139.042C77.3645 139.314 76.8003 139.314 76.3022 139.042L62.6985 130.975C62.2882 130.738 61.8009 130.654 61.4075 130.872C57.6225 133.004 56.9247 133.287 53.3742 134.51C52.5008 134.812 51.2122 135.337 53.8675 136.815L71.6714 147.279C73.3762 148.259 75.3132 148.769 77.2623 148.769C79.2378 148.769 81.1724 148.259 82.8773 147.279L135.676 116.701C139.129 114.702 140.766 111.006 140.766 107.039V45.9083C140.766 41.9411 139.129 38.2416 135.678 36.2586ZM93.7355 97.3522C79.6276 97.3522 76.52 93.4853 75.4841 86.5155C75.3638 85.7648 74.7225 84.8671 73.9537 84.8671H67.0586C66.2056 84.8671 65.5198 85.8951 65.5198 86.739C65.5198 95.6632 70.4033 106.476 93.7367 106.476C110.627 106.476 120.311 99.9556 120.311 88.416C120.311 76.9745 112.531 73.9719 96.1501 71.8179C79.5927 69.6436 77.9108 68.5451 77.9108 64.6914C77.9108 61.5143 79.3353 57.2769 91.5951 57.2769C102.55 57.2769 106.587 59.6126 108.249 66.9482C108.391 67.6379 109.025 68.1328 109.741 68.1328H116.663C117.089 68.1328 117.496 67.9618 117.794 67.6594C118.083 67.3343 118.236 66.9267 118.197 66.4892C117.125 53.8571 108.678 47.9702 91.5939 47.9702C76.3972 47.9702 67.3317 54.346 67.3317 65.0333C67.3317 76.6255 76.3515 79.8289 90.9394 81.2621C108.391 82.9618 109.748 85.4959 109.748 88.9061C109.748 94.8289 104.962 97.3522 93.7355 97.3522Z" fill="#83CD29"/>
</svg>
