<svg width="240" height="151" viewBox="0 0 240 151" fill="none" xmlns="http://www.w3.org/2000/svg">
<path d="M118.698 151C117.884 151 117.125 150.777 116.42 150.387L109.204 145.983C108.119 145.37 108.662 145.147 108.987 145.036C110.452 144.534 110.723 144.423 112.242 143.531C112.405 143.419 112.622 143.475 112.785 143.586L118.318 146.987C118.535 147.098 118.807 147.098 118.969 146.987L140.615 134.111C140.832 133.999 140.94 133.776 140.94 133.498V107.801C140.94 107.523 140.832 107.3 140.615 107.188L118.969 94.3679C118.752 94.2565 118.481 94.2565 118.318 94.3679L96.6727 107.188C96.4557 107.3 96.3472 107.578 96.3472 107.801V133.498C96.3472 133.72 96.4557 133.999 96.6727 134.111L102.586 137.622C105.787 139.294 107.794 137.344 107.794 135.393V110.031C107.794 109.696 108.065 109.362 108.445 109.362H111.212C111.537 109.362 111.863 109.641 111.863 110.031V135.393C111.863 139.796 109.53 142.36 105.461 142.36C104.213 142.36 103.237 142.36 100.47 140.967L94.774 137.622C93.3635 136.786 92.4955 135.225 92.4955 133.553V107.857C92.4955 106.185 93.3635 104.624 94.774 103.788L116.42 90.9121C117.776 90.1317 119.62 90.1317 120.976 90.9121L142.622 103.788C144.033 104.624 144.901 106.185 144.901 107.857V133.553C144.901 135.225 144.033 136.786 142.622 137.622L120.976 150.498C120.271 150.833 119.458 151 118.698 151ZM125.371 133.33C115.877 133.33 113.924 128.871 113.924 125.081C113.924 124.746 114.195 124.412 114.575 124.412H117.396C117.722 124.412 117.993 124.635 117.993 124.969C118.427 127.924 119.675 129.373 125.425 129.373C129.982 129.373 131.935 128.314 131.935 125.805C131.935 124.356 131.392 123.297 124.286 122.572C118.373 121.959 114.684 120.622 114.684 115.772C114.684 111.257 118.373 108.582 124.557 108.582C131.501 108.582 134.919 111.034 135.353 116.385C135.353 116.553 135.298 116.72 135.19 116.887C135.081 116.998 134.919 117.11 134.756 117.11H131.935C131.664 117.11 131.392 116.887 131.338 116.608C130.687 113.543 129.005 112.539 124.557 112.539C119.566 112.539 118.969 114.323 118.969 115.661C118.969 117.277 119.675 117.779 126.401 118.671C133.074 119.562 136.221 120.845 136.221 125.638C136.166 130.543 132.26 133.33 125.371 133.33Z" fill="#539E43"/>
<path d="M51.5371 50.5003C51.5371 49.497 50.9946 48.5494 50.1266 48.0478L27.1248 34.4472C26.745 34.2242 26.311 34.1127 25.877 34.057H25.66C25.226 34.057 24.792 34.2242 24.4123 34.4472L1.41049 48.0478C0.542495 48.5494 0 49.497 0 50.5003L0.0542495 87.0659C0.0542495 87.5675 0.325497 88.0692 0.759494 88.2921C1.19349 88.5708 1.73599 88.5708 2.11573 88.2921L15.7866 80.2656C16.6546 79.7639 17.1971 78.8163 17.1971 77.813V60.7008C17.1971 59.6975 17.7396 58.7499 18.6076 58.2482L24.4123 54.7923C24.8463 54.5136 25.3345 54.4022 25.8228 54.4022C26.311 54.4022 26.7993 54.5136 27.179 54.7923L32.9837 58.2482C33.8517 58.7499 34.3942 59.6975 34.3942 60.7008V77.813C34.3942 78.8163 34.9367 79.7639 35.8047 80.2656L49.4756 88.2921C49.9096 88.5708 50.4521 88.5708 50.8861 88.2921C51.3201 88.0692 51.5913 87.5675 51.5913 87.0659L51.5371 50.5003Z" fill="#333333"/>
<path d="M162.098 0.167098C161.664 -0.0558622 161.121 -0.0558622 160.741 0.167098C160.307 0.445799 160.036 0.89172 160.036 1.39338V37.6245C160.036 37.9589 159.873 38.2933 159.548 38.5163C159.222 38.6835 158.897 38.6835 158.571 38.5163L152.821 35.1161C151.953 34.6145 150.922 34.6145 150.054 35.1161L127.052 48.7725C126.184 49.2741 125.642 50.2217 125.642 51.225V78.482C125.642 79.4853 126.184 80.4329 127.052 80.9345L150.054 94.5909C150.922 95.0925 151.953 95.0925 152.821 94.5909L175.823 80.9345C176.691 80.4329 177.233 79.4853 177.233 78.482V10.5348C177.233 9.4757 176.691 8.52812 175.823 8.02645L162.098 0.167098ZM159.982 69.5078C159.982 69.7865 159.873 70.0095 159.656 70.1209L151.79 74.8031C151.573 74.9146 151.302 74.9146 151.085 74.8031L143.219 70.1209C143.002 70.0095 142.893 69.7308 142.893 69.5078V60.1435C142.893 59.8648 143.002 59.6418 143.219 59.5303L151.085 54.8482C151.302 54.7367 151.573 54.7367 151.79 54.8482L159.656 59.5303C159.873 59.6418 159.982 59.9205 159.982 60.1435V69.5078Z" fill="#333333"/>
<path d="M238.644 59.9206C239.512 59.4189 240 58.4713 240 57.468V50.8349C240 49.8316 239.457 48.884 238.644 48.3824L215.805 34.7818C214.937 34.2801 213.906 34.2801 213.038 34.7818L190.036 48.4381C189.168 48.9398 188.626 49.8873 188.626 50.8907V78.1476C188.626 79.1509 189.168 80.0985 190.036 80.6001L212.875 93.9778C213.743 94.4794 214.774 94.4794 215.588 93.9778L229.421 86.0627C229.855 85.8397 230.127 85.3381 230.127 84.8364C230.127 84.3347 229.855 83.8331 229.421 83.6101L206.311 69.9538C205.877 69.6751 205.606 69.2292 205.606 68.7275V60.1993C205.606 59.6976 205.877 59.1959 206.311 58.973L213.526 54.7367C213.96 54.458 214.503 54.458 214.937 54.7367L222.152 58.973C222.586 59.2517 222.857 59.6976 222.857 60.1993V66.8881C222.857 67.3897 223.128 67.8914 223.562 68.1144C223.996 68.3931 224.539 68.3931 224.973 68.1144L238.644 59.9206Z" fill="#333333"/>
<path d="M214.069 58.6385C214.231 58.5271 214.448 58.5271 214.611 58.6385L219.005 61.2583C219.168 61.3698 219.277 61.537 219.277 61.76V66.9996C219.277 67.2225 219.168 67.3897 219.005 67.5012L214.611 70.121C214.448 70.2325 214.231 70.2325 214.069 70.121L209.674 67.5012C209.512 67.3897 209.403 67.2225 209.403 66.9996V61.76C209.403 61.537 209.512 61.3698 209.674 61.2583L214.069 58.6385Z" fill="#539E43"/>
<path d="M90 34.8931C89.132 34.3914 88.1013 34.3914 87.2333 34.8931L64.3942 48.4379C63.5262 48.9396 63.038 49.8872 63.038 50.8905V78.0359C63.038 79.0393 63.5805 79.9868 64.3942 80.4885L87.2333 94.0334C88.1013 94.535 89.132 94.535 90 94.0334L112.839 80.4885C113.707 79.9868 114.195 79.0393 114.195 78.0359V50.8905C114.195 49.8872 113.653 48.9396 112.839 48.4379L90 34.8931Z" fill="url(#paint0_linear_11_222)"/>
<mask id="mask0_11_222" style="mask-type:luminance" maskUnits="userSpaceOnUse" x="63" y="34" width="52" height="61">
<path d="M90 34.8931C89.132 34.3914 88.1013 34.3914 87.2333 34.8931L64.3942 48.4379C63.5262 48.9396 63.038 49.8872 63.038 50.8905V78.0359C63.038 79.0393 63.5805 79.9868 64.3942 80.4885L87.2333 94.0334C88.1013 94.535 89.132 94.535 90 94.0334L112.839 80.4885C113.707 79.9868 114.195 79.0393 114.195 78.0359V50.8905C114.195 49.8872 113.653 48.9396 112.839 48.4379L90 34.8931Z" fill="white"/>
</mask>
<g mask="url(#mask0_11_222)">
<path d="M112.893 48.4379L89.9457 34.8931C89.7287 34.7816 89.4574 34.6701 89.2404 34.6144L63.5261 79.8754C63.7431 80.1541 64.0144 80.377 64.2856 80.5442L87.2332 94.0891C87.8842 94.4793 88.6437 94.5907 89.3489 94.3678L113.49 48.9953C113.327 48.7724 113.11 48.6051 112.893 48.4379Z" fill="url(#paint1_linear_11_222)"/>
</g>
<mask id="mask1_11_222" style="mask-type:luminance" maskUnits="userSpaceOnUse" x="63" y="34" width="52" height="61">
<path d="M90 34.8931C89.132 34.3914 88.1013 34.3914 87.2333 34.8931L64.3942 48.4379C63.5262 48.9396 63.038 49.8872 63.038 50.8905V78.0359C63.038 79.0393 63.5805 79.9868 64.3942 80.4885L87.2333 94.0334C88.1013 94.535 89.132 94.535 90 94.0334L112.839 80.4885C113.707 79.9868 114.195 79.0393 114.195 78.0359V50.8905C114.195 49.8872 113.653 48.9396 112.839 48.4379L90 34.8931Z" fill="white"/>
</mask>
<g mask="url(#mask1_11_222)">
<path fill-rule="evenodd" clip-rule="evenodd" d="M112.948 80.4884C113.599 80.0982 114.087 79.4293 114.304 78.7047L89.132 34.5585C88.481 34.4471 87.7757 34.5028 87.179 34.893L64.3942 48.3821L88.9692 94.4234C89.2947 94.3677 89.6745 94.2562 90 94.089L112.948 80.4884Z" fill="url(#paint2_linear_11_222)"/>
<path fill-rule="evenodd" clip-rule="evenodd" d="M112.947 80.4885L90.0542 94.0333C89.7287 94.2005 89.4032 94.312 89.0234 94.3678L89.4574 95.2039L114.846 80.0983V79.7639L114.195 78.649C114.087 79.4294 113.598 80.0983 112.947 80.4885Z" fill="url(#paint3_linear_11_222)"/>
<path fill-rule="evenodd" clip-rule="evenodd" d="M112.947 80.4885L90.0542 94.0333C89.7287 94.2005 89.4032 94.312 89.0234 94.3678L89.4574 95.2039L114.846 80.0983V79.7639L114.195 78.649C114.087 79.4294 113.598 80.0983 112.947 80.4885Z" fill="url(#paint4_linear_11_222)"/>
</g>
<defs>
<linearGradient id="paint0_linear_11_222" x1="3551.38" y1="1081.85" x2="950.212" y2="5059.59" gradientUnits="userSpaceOnUse">
<stop stop-color="#41873F"/>
<stop offset="0.3288" stop-color="#418B3D"/>
<stop offset="0.6352" stop-color="#419637"/>
<stop offset="0.9319" stop-color="#3FA92D"/>
<stop offset="1" stop-color="#3FAE2A"/>
</linearGradient>
<linearGradient id="paint1_linear_11_222" x1="2225.79" y1="3337.41" x2="8571.66" y2="-18.0932" gradientUnits="userSpaceOnUse">
<stop offset="0.1376" stop-color="#41873F"/>
<stop offset="0.4032" stop-color="#54A044"/>
<stop offset="0.7136" stop-color="#66B848"/>
<stop offset="0.9081" stop-color="#6CC04A"/>
</linearGradient>
<linearGradient id="paint2_linear_11_222" x1="-154.649" y1="3030.12" x2="5130.18" y2="3030.12" gradientUnits="userSpaceOnUse">
<stop offset="0.0919165" stop-color="#6CC04A"/>
<stop offset="0.2864" stop-color="#66B848"/>
<stop offset="0.5968" stop-color="#54A044"/>
<stop offset="0.8624" stop-color="#41873F"/>
</linearGradient>
<linearGradient id="paint3_linear_11_222" x1="-2592.95" y1="910.95" x2="2691.88" y2="910.95" gradientUnits="userSpaceOnUse">
<stop offset="0.0919165" stop-color="#6CC04A"/>
<stop offset="0.2864" stop-color="#66B848"/>
<stop offset="0.5968" stop-color="#54A044"/>
<stop offset="0.8624" stop-color="#41873F"/>
</linearGradient>
<linearGradient id="paint4_linear_11_222" x1="3461.82" y1="-3415.57" x2="2051.14" y2="3778.68" gradientUnits="userSpaceOnUse">
<stop stop-color="#41873F"/>
<stop offset="0.3288" stop-color="#418B3D"/>
<stop offset="0.6352" stop-color="#419637"/>
<stop offset="0.9319" stop-color="#3FA92D"/>
<stop offset="1" stop-color="#3FAE2A"/>
</linearGradient>
</defs>
</svg>
