<svg width="152" height="140" viewBox="0 0 152 140" fill="none" xmlns="http://www.w3.org/2000/svg">
<path d="M28.0345 119.004L17.3613 8.75H134.639L123.951 118.987L75.9288 131.25L28.0345 119.004Z" fill="#E44F26"/>
<path d="M76 121.879L114.807 111.969L123.937 17.7668H76V121.879Z" fill="#F1662A"/>
<path d="M76 58.6556H56.5725L55.233 44.8088H76V31.2856H75.9478H39.1875L39.539 34.9169L43.1443 72.1788H76V58.6556Z" fill="#EBEBEB"/>
<path d="M76 93.7738L75.9335 93.7913L59.584 89.7269L58.539 78.9425H50.5922H43.7997L45.8565 100.17L75.9335 107.861L76 107.844V93.7738Z" fill="#EBEBEB"/>
<path d="M75.9478 58.6556V72.1788H94.0263L92.3258 89.7181L75.9478 93.7869V107.857L106.049 100.17L106.267 97.8863L109.715 62.2869L110.076 58.6556H106.12H75.9478Z" fill="white"/>
<path d="M75.9478 31.2856V39.6856V44.7781V44.8088H111.364H111.411L111.706 41.7725L112.376 34.9169L112.727 31.2856H75.9478Z" fill="white"/>
</svg>
