<svg width="115" height="119" viewBox="0 0 115 119" fill="none" xmlns="http://www.w3.org/2000/svg">
<g clip-path="url(#clip0_11_251)">
<path d="M0 0H115V119H0V0Z" fill="#F7DF1E"/>
<path d="M30.2377 99.4451L39.0383 93.9339C40.7361 97.0489 42.2806 99.6845 45.9852 99.6845C49.5364 99.6845 51.7752 98.247 51.7752 92.6559V54.6326H62.5823V92.814C62.5823 104.397 56.0211 109.669 46.4485 109.669C37.8033 109.669 32.7849 105.035 30.2375 99.4442" fill="black"/>
<path d="M68.4524 98.2468L77.2519 92.9747C79.5683 96.8893 82.579 99.7647 87.9051 99.7647C92.383 99.7647 95.2385 97.448 95.2385 94.2528C95.2385 90.4185 92.3052 89.0604 87.3646 86.8245L84.6636 85.6254C76.8664 82.1912 71.6941 77.8778 71.6941 68.7713C71.6941 60.3838 77.8696 53.9932 87.5194 53.9932C94.3898 53.9932 99.3303 56.4697 102.881 62.9401L94.4665 68.5314C92.6137 65.0968 90.6072 63.7391 87.5196 63.7391C84.3545 63.7391 82.3473 65.8159 82.3473 68.5314C82.3473 71.8864 84.3545 73.2447 88.9857 75.3217L91.6873 76.5199C100.874 80.594 106.046 84.7473 106.046 94.0929C106.046 104.158 98.4037 109.67 88.1369 109.67C78.1016 109.67 71.6169 104.717 68.4524 98.2468Z" fill="black"/>
</g>
<defs>
<clipPath id="clip0_11_251">
<rect width="115" height="119" fill="white"/>
</clipPath>
</defs>
</svg>
