<svg width="194" height="195" viewBox="0 0 194 195" fill="none" xmlns="http://www.w3.org/2000/svg">
<path fill-rule="evenodd" clip-rule="evenodd" d="M30.3125 147.621V135.281C30.3125 133.605 31.3735 132.387 33.0407 132.387H33.4954C35.1625 132.387 36.2235 133.758 36.2235 135.281V161.18C36.2235 167.426 33.1922 172.453 27.736 175.652C25.1594 177.176 22.4313 177.938 19.5516 177.938H18.3391C12.125 177.938 7.12349 174.891 3.94067 169.406C2.42505 166.816 1.66724 164.074 1.66724 161.18V159.961C1.66724 153.715 4.69849 148.687 10.1547 145.488C12.7313 143.965 15.4594 143.203 18.3391 143.203H19.5516C23.6438 143.355 27.2813 144.879 30.3125 147.621ZM7.42661 160.57C7.42661 165.141 9.70005 168.492 13.6407 170.777C15.3079 171.691 16.975 172.148 18.7938 172.148C23.1891 172.148 26.5235 170.016 28.7969 166.207C29.8579 164.379 30.3125 162.551 30.3125 160.418C30.3125 156.457 28.4938 153.41 25.311 151.125C23.3407 149.754 21.2188 148.992 18.9454 148.992C14.0954 148.992 10.6094 151.43 8.48755 155.848C7.72974 157.371 7.42661 159.047 7.42661 160.57ZM56.2297 143.355H56.9875C63.6563 143.355 68.8094 146.555 71.9922 152.496C73.3563 154.781 73.9625 157.371 73.9625 160.113V161.332C73.9625 167.578 70.9313 172.605 65.4751 175.805C62.8985 177.328 60.1704 178.09 57.2907 178.09H56.0782C49.8641 178.09 44.8625 175.043 41.6797 169.559C40.1641 166.969 39.4063 164.227 39.4063 161.332V160.113C39.4063 153.867 42.5891 148.84 47.8938 145.641C50.4704 143.965 53.35 143.355 56.2297 143.355ZM45.3172 160.57C45.3172 164.988 47.4391 168.188 51.2282 170.473C53.0469 171.539 54.8657 171.996 56.9875 171.996C61.3829 171.996 64.5657 169.711 66.8391 166.055C67.9 164.227 68.3547 162.398 68.3547 160.266C68.3547 156.152 66.3844 152.953 63.05 150.668C61.2313 149.449 59.1094 148.84 56.9875 148.84C52.1376 148.84 48.6516 151.277 46.5297 155.695C45.6204 157.371 45.3172 159.047 45.3172 160.57ZM98.061 149.602C97.1516 149.145 95.4844 148.992 94.5751 148.992C89.7251 148.84 86.2391 151.582 84.1172 155.848C83.3594 157.371 83.0563 158.895 83.0563 160.57C83.0563 165.598 85.6329 169.102 90.0282 171.234C91.6954 171.996 93.6657 172.148 95.4844 172.148C97.0001 172.148 99.2735 171.234 100.638 170.473L100.941 170.32H102.153C103.517 170.625 104.427 171.387 104.427 172.91V173.52C104.427 177.023 97.9094 177.938 95.4844 178.09C86.8454 178.699 80.3282 173.977 77.9032 165.598C77.4485 164.227 77.2969 162.703 77.2969 161.18V159.961C77.2969 153.715 80.4797 148.687 85.7844 145.488C88.361 143.965 91.0891 143.203 93.9688 143.203H95.1813C98.2125 143.203 101.092 144.117 103.669 145.793L103.82 145.945L103.972 146.098C104.275 146.555 104.427 147.012 104.427 147.621V148.23C104.427 149.754 103.366 150.516 102.002 150.82H101.547C100.789 150.82 98.8188 149.906 98.061 149.602ZM116.855 153.563C119.128 151.277 121.402 148.992 123.675 146.859C124.281 146.25 126.706 143.66 127.616 143.66H128.828C130.192 143.965 131.102 144.727 131.102 146.25V146.859C131.102 147.773 130.041 148.992 129.283 149.602L125.191 153.715L118.219 160.875C121.25 163.922 124.281 166.969 127.161 170.016L129.586 172.605C129.889 172.91 130.344 173.215 130.495 173.672C130.798 174.129 130.95 174.586 130.95 175.043V175.805C130.647 177.176 129.738 178.242 128.373 178.242H127.919C127.009 178.242 125.948 177.176 125.191 176.566C123.827 175.348 122.463 173.977 121.25 172.605L116.855 168.188V175.195C116.855 176.871 115.794 178.09 114.127 178.09H113.672C112.005 178.09 110.944 176.719 110.944 175.195V135.434C110.944 133.758 112.005 132.539 113.672 132.539H114.127C115.794 132.539 116.855 133.758 116.855 135.434V153.563ZM188.998 143.508H189.605C191.272 143.508 192.484 144.727 192.484 146.402C192.484 148.84 190.211 149.449 188.241 149.449C185.664 149.449 183.088 150.973 181.42 152.801C179.147 155.086 178.238 157.828 178.238 161.027V175.043C178.238 176.719 177.177 177.938 175.509 177.938H175.055C173.388 177.938 172.327 176.566 172.327 175.043V160.113C172.327 154.324 175.055 149.754 179.753 146.402C182.481 144.574 185.664 143.508 188.998 143.508ZM147.925 171.387C150.047 172.148 152.472 171.996 154.594 171.691C155.655 171.234 158.534 170.016 159.595 170.168H159.898C160.505 170.473 161.111 170.93 161.414 171.539C162.172 173.062 161.869 174.586 160.353 175.5L159.898 175.805C154.442 179.004 148.531 178.547 143.075 175.5C140.498 174.129 138.528 171.996 137.013 169.406L136.709 168.797C133.223 162.703 133.678 156.152 137.619 150.363C138.983 148.383 140.802 146.859 142.923 145.641L143.681 145.184C148.834 142.137 154.442 142.441 159.747 145.031C162.627 146.402 164.9 148.535 166.567 151.277L166.87 151.734C168.083 153.715 166.567 155.543 165.052 156.762C163.233 158.133 161.414 159.809 159.747 161.332C155.655 164.684 151.714 168.035 147.925 171.387ZM142.923 167.883L155.806 156.762C157.322 155.543 158.838 154.172 160.353 152.801C159.141 151.277 157.17 150.211 155.655 149.602C152.32 148.383 148.986 148.688 145.955 150.516C142.014 152.801 140.195 156.609 140.347 161.18C140.347 163.008 140.953 164.684 141.863 166.359C142.166 166.969 142.469 167.426 142.923 167.883Z" fill="#3A4D54"/>
<path fill-rule="evenodd" clip-rule="evenodd" d="M111.702 51.3398H128.828V68.8594H137.467C141.408 68.8594 145.5 68.0977 149.289 66.8789C151.108 66.2695 153.23 65.3555 155.048 64.2891C152.623 61.0898 151.411 57.1289 151.108 53.168C150.653 47.8359 151.714 40.8281 155.352 36.7148L157.17 34.582L159.292 36.2578C164.748 40.6758 169.144 46.6172 170.053 53.625C176.57 51.6445 184.148 52.1016 189.908 55.4531L192.181 56.8242L190.969 59.2617C186.119 68.707 175.964 71.7539 166.112 71.1445C151.259 108.164 119.128 125.684 80.025 125.684C59.8671 125.684 41.3765 118.066 30.7671 100.09L30.6156 99.7852L29.1 96.5859C25.4625 88.6641 24.4015 79.9805 25.1593 71.2969L25.4625 68.707H40.0125V51.3398H57.139V34.125H91.2406V16.9102H111.702V51.3398Z" fill="#3A4D54"/>
<path d="M167.022 57.7383C168.234 48.75 161.566 41.7422 157.322 38.3906C152.624 43.875 151.866 58.5 159.292 64.5938C155.049 68.25 146.409 71.7539 137.316 71.7539H27.8876C26.9782 81.1992 28.6454 89.8828 32.4344 97.3477L33.6469 99.6328C34.4048 101.004 35.3141 102.223 36.2235 103.594C40.7704 103.898 44.8626 104.051 48.6516 103.898C56.0782 103.746 62.1407 102.832 66.8391 101.309C67.5969 101.004 68.2032 101.461 68.5063 102.07C68.8094 102.832 68.3548 103.441 67.7485 103.746C67.1423 103.898 66.536 104.203 65.7782 104.355C62.1407 105.422 58.2001 106.031 53.1985 106.336H52.2891C50.3188 106.488 48.1969 106.488 45.9235 106.488C43.4985 106.488 41.2251 106.488 38.4969 106.336C47.5907 116.695 61.8376 122.789 79.7219 122.789C117.613 122.789 149.744 105.879 163.839 68.0977C173.994 69.1641 183.694 66.5742 188.089 57.8906C181.269 53.9297 172.175 55.1484 167.022 57.7383Z" fill="#00AADA"/>
<path d="M167.022 57.7383C168.234 48.75 161.566 41.7422 157.322 38.3906C152.623 43.875 151.866 58.5 159.292 64.5938C155.048 68.25 146.409 71.7539 137.316 71.7539H34.2531C33.7984 86.2266 39.1031 97.1953 48.6515 103.746C56.0781 103.594 62.1406 102.68 66.839 101.156C67.5968 100.852 68.2031 101.309 68.5062 101.918C68.8093 102.68 68.3547 103.289 67.7484 103.594C67.1422 103.746 66.5359 104.051 65.7781 104.203C62.1406 105.27 57.8968 106.031 52.8953 106.336L52.7437 106.184C65.6265 112.887 84.2687 112.734 105.791 104.508C129.737 95.2148 152.169 77.543 167.78 57.4336C167.477 57.5859 167.325 57.7383 167.022 57.7383Z" fill="#28B8EB"/>
<path d="M28.0391 83.1797C28.6453 88.207 30.1609 92.9297 32.4344 97.3477L33.6469 99.6328C34.4047 101.004 35.3141 102.223 36.2234 103.594C40.7703 103.898 44.8625 104.051 48.6516 103.898C56.0781 103.746 62.1406 102.832 66.8391 101.309C67.5969 101.004 68.2031 101.461 68.5063 102.07C68.8094 102.832 68.3547 103.441 67.7484 103.746C67.1422 103.898 66.5359 104.203 65.7781 104.355C62.1406 105.422 57.8969 106.184 52.8953 106.488H52.2891C50.3188 106.641 48.1969 106.641 46.075 106.641C43.65 106.641 41.225 106.641 38.6484 106.488C47.7422 116.848 62.1406 122.941 80.025 122.941C112.459 122.941 140.65 110.602 157.019 83.332H28.0391V83.1797Z" fill="#028BB8"/>
<path d="M35.314 83.1797C37.2843 92.0156 41.8312 99.0234 48.6515 103.746C56.078 103.594 62.1405 102.68 66.839 101.156C67.5968 100.852 68.203 101.309 68.5062 101.918C68.8093 102.68 68.3546 103.289 67.7483 103.594C67.1421 103.746 66.5358 104.051 65.778 104.203C62.1405 105.27 57.8968 106.031 52.7437 106.336C65.6265 113.039 84.2687 112.887 105.639 104.66C118.522 99.6328 131.101 92.168 142.317 83.1797H35.314Z" fill="#019BC6"/>
<path fill-rule="evenodd" clip-rule="evenodd" d="M42.7406 54.082H57.5937V69.0117H42.7406V54.082ZM43.9531 55.4531H45.1656V67.793H43.9531V55.4531ZM46.2265 55.4531H47.439V67.793H46.2265V55.4531ZM48.5 55.4531H49.7125V67.793H48.5V55.4531ZM50.6219 55.4531H51.8344V67.793H50.6219V55.4531ZM52.8953 55.4531H54.1078V67.793H52.8953V55.4531ZM55.1687 55.4531H56.3812V67.793H55.1687V55.4531ZM59.8672 37.0195H74.7203V51.7969H59.8672V37.0195ZM61.0797 38.2383H62.2922V50.5781H61.0797V38.2383ZM63.3531 38.2383H64.5656V50.5781H63.3531V38.2383ZM65.475 38.2383H66.6875V50.5781H65.475V38.2383ZM67.7484 38.2383H68.9609V50.5781H67.7484V38.2383ZM70.0219 38.2383H71.2344V50.5781H70.0219V38.2383ZM72.2953 38.2383H73.5078V50.5781H72.2953V38.2383Z" fill="#00ACD3"/>
<path fill-rule="evenodd" clip-rule="evenodd" d="M59.8672 54.082H74.7203V69.0117H59.8672V54.082ZM61.0797 55.4531H62.2922V67.793H61.0797V55.4531ZM63.3531 55.4531H64.5656V67.793H63.3531V55.4531ZM65.475 55.4531H66.6875V67.793H65.475V55.4531ZM67.7484 55.4531H68.9609V67.793H67.7484V55.4531ZM70.0219 55.4531H71.2344V67.793H70.0219V55.4531ZM72.2953 55.4531H73.5078V67.793H72.2953V55.4531Z" fill="#23C2EE"/>
<path fill-rule="evenodd" clip-rule="evenodd" d="M76.9938 54.082H91.8469V69.0117H76.9938V54.082ZM78.2063 55.4531H79.4188V67.793H78.2063V55.4531ZM80.3282 55.4531H81.5406V67.793H80.3282V55.4531ZM82.6016 55.4531H83.8141V67.793H82.6016V55.4531ZM84.875 55.4531H86.0875V67.793H84.875V55.4531ZM87.1485 55.4531H88.361V67.793H87.1485V55.4531ZM89.2703 55.4531H90.4828V67.793H89.2703V55.4531Z" fill="#00ACD3"/>
<path fill-rule="evenodd" clip-rule="evenodd" d="M76.9938 37.0195H91.8469V51.7969H76.9938V37.0195ZM78.2063 38.2383H79.4188V50.5781H78.2063V38.2383ZM80.3282 38.2383H81.5406V50.5781H80.3282V38.2383ZM82.6016 38.2383H83.8141V50.5781H82.6016V38.2383ZM84.875 38.2383H86.0875V50.5781H84.875V38.2383ZM87.1485 38.2383H88.361V50.5781H87.1485V38.2383ZM89.2703 38.2383H90.4828V50.5781H89.2703V38.2383ZM93.9688 54.082H108.822V69.0117H93.9688V54.082ZM95.3328 55.4531H96.5453V67.793H95.3328V55.4531ZM97.4547 55.4531H98.6672V67.793H97.4547V55.4531ZM99.7282 55.4531H100.941V67.793H99.7282V55.4531ZM102.002 55.4531H103.214V67.793H102.002V55.4531ZM104.123 55.4531H105.336V67.793H104.123V55.4531ZM106.397 55.4531H107.609V67.793H106.397V55.4531Z" fill="#23C2EE"/>
<path fill-rule="evenodd" clip-rule="evenodd" d="M93.9688 37.0195H108.822V51.7969H93.9688V37.0195ZM95.3328 38.2383H96.5453V50.5781H95.3328V38.2383ZM97.4547 38.2383H98.6672V50.5781H97.4547V38.2383ZM99.7281 38.2383H100.941V50.5781H99.7281V38.2383ZM102.002 38.2383H103.214V50.5781H102.002V38.2383ZM104.123 38.2383H105.336V50.5781H104.123V38.2383ZM106.397 38.2383H107.609V50.5781H106.397V38.2383Z" fill="#00ACD3"/>
<path fill-rule="evenodd" clip-rule="evenodd" d="M93.9688 19.8047H108.822V34.7344H93.9688V19.8047ZM95.3328 21.0234H96.5453V33.5156H95.3328V21.0234ZM97.4547 21.0234H98.6672V33.5156H97.4547V21.0234ZM99.7281 21.0234H100.941V33.5156H99.7281V21.0234ZM102.002 21.0234H103.214V33.5156H102.002V21.0234ZM104.123 21.0234H105.336V33.5156H104.123V21.0234ZM106.397 21.0234H107.609V33.5156H106.397V21.0234Z" fill="#23C2EE"/>
<path fill-rule="evenodd" clip-rule="evenodd" d="M111.095 54.082H125.948V69.0117H111.095V54.082ZM112.308 55.4531H113.52V67.793H112.308V55.4531ZM114.581 55.4531H115.794V67.793H114.581V55.4531ZM116.855 55.4531H118.067V67.793H116.855V55.4531ZM118.977 55.4531H120.189V67.793H118.977V55.4531ZM121.25 55.4531H122.463V67.793H121.25V55.4531ZM123.523 55.4531H124.736V67.793H123.523V55.4531Z" fill="#00ACD3"/>
<path fill-rule="evenodd" clip-rule="evenodd" d="M73.6593 93.2344C75.9328 93.2344 77.7515 95.0625 77.7515 97.3477C77.7515 99.6328 75.9328 101.461 73.6593 101.461C71.3859 101.461 69.5671 99.6328 69.5671 97.3477C69.7187 95.0625 71.5374 93.2344 73.6593 93.2344Z" fill="#D4EEF1"/>
<path fill-rule="evenodd" clip-rule="evenodd" d="M73.6594 94.3008C73.9625 94.3008 74.4172 94.3008 74.7203 94.4531C74.4172 94.6055 74.1141 95.0625 74.1141 95.5195C74.1141 96.1289 74.7203 96.7383 75.3266 96.7383C75.7812 96.7383 76.2359 96.4336 76.3875 96.1289C76.5391 96.4336 76.5391 96.8906 76.5391 97.1953C76.5391 98.8711 75.175 100.09 73.6594 100.09C71.9922 100.09 70.7797 98.7187 70.7797 97.1953C70.7797 95.6719 72.1437 94.3008 73.6594 94.3008ZM1.51562 84.7031H191.423C187.331 83.6367 178.389 82.2656 179.753 76.7812C172.175 85.4648 154.139 82.875 149.441 78.6094C144.287 86.0742 114.581 83.1797 112.611 77.3906C106.245 85.0078 86.3906 85.0078 80.025 77.3906C77.9031 83.1797 48.1969 86.0742 43.1953 78.6094C38.6484 82.875 20.4609 85.4648 12.8828 76.7812C14.55 82.1133 5.60781 83.6367 1.51562 84.7031Z" fill="#3A4D54"/>
<path d="M84.5718 122.789C74.4172 117.914 68.9609 111.363 65.7781 104.203C61.989 105.27 57.4422 106.031 52.289 106.336C50.3187 106.488 48.1968 106.488 46.075 106.488C43.4984 106.488 40.9219 106.488 38.1937 106.336C47.439 115.629 58.9578 122.789 80.025 122.941C81.5406 122.789 83.0562 122.789 84.5718 122.789Z" fill="#BFDBE0"/>
<path d="M69.5672 110.754C68.2031 108.773 66.8391 106.488 65.7781 104.203C61.9891 105.27 57.4422 106.031 52.2891 106.336C55.9266 108.316 61.0797 110.145 69.5672 110.754Z" fill="#D4EEF1"/>
</svg>
