<svg width="198" height="161" viewBox="0 0 198 161" fill="none" xmlns="http://www.w3.org/2000/svg">
<path d="M82.9125 54.3376L83.325 62.0521L76.725 72.1146L66.4125 88.55L64.35 102.302L71.775 121.756L88.6875 129.471H114.262L138.187 114.713L148.912 91.5688L124.162 67.0834L117.15 53.3313L82.9125 54.3376Z" fill="#ECEFF1"/>
<path d="M141.487 73.4562C134.887 65.7416 129.525 61.0458 126.638 51.3187C123.75 41.5917 127.462 44.275 124.987 35.8896C123.75 31.5292 121.688 28.5104 119.625 26.1625C117.15 23.8146 114.262 22.4729 112.612 22.1375C108.9 20.4604 100.237 17.7771 89.5125 22.4729C78.375 27.1687 79.6125 37.2312 81.675 57.6917C81.675 59.0333 81.2625 60.7104 80.4375 62.0521C78.7875 65.0708 75.9 67.7542 73.425 70.1021C70.5375 73.4562 67.65 76.8104 65.5875 80.5C60.6375 88.2146 56.1 97.9417 57.3375 101.631C59.4 101.296 85.3875 133.496 85.3875 134.167C87.0375 133.831 94.05 133.831 100.237 133.831C108.9 133.496 113.85 133.16 120.862 134.502C120.862 133.496 120.45 132.49 120.45 131.483C120.45 129.471 120.862 127.794 121.275 125.446C121.688 123.769 122.1 122.092 122.513 120.079C118.388 123.098 110.963 126.452 103.95 127.458C97.7625 128.465 87.45 126.787 82.5 121.756C82.9125 121.756 83.7375 121.756 84.15 121.421C85.3875 121.085 86.625 120.75 87.0375 120.079C88.275 118.402 87.45 116.725 86.625 115.719C85.8 114.712 79.6125 111.023 76.725 109.01C73.8375 106.998 72.1875 105.992 70.5375 104.65C70.5375 104.65 68.0625 102.637 67.2375 101.967C66.4125 101.296 66 100.625 65.5875 100.29C64.7625 98.6125 64.35 96.6 64.7625 93.9167C65.175 90.2271 66.825 87.2083 68.8875 83.8542C69.7125 82.5125 71.775 79.8292 71.775 79.8292C71.775 79.8292 64.7625 93.9166 68.475 98.2771C68.475 98.2771 68.8875 93.9167 70.5375 89.5562C71.775 86.5375 73.8375 82.1771 76.3125 79.8292C78.7875 77.4812 84.975 68.7604 85.3875 63.3937C85.3875 61.0458 85.8 58.6979 85.8 57.0208C84.15 55.6791 113.025 52.325 114.675 56.0146C115.087 57.3562 120.862 69.4312 124.162 75.8042C125.812 78.8229 127.875 81.5062 129.112 84.8604C130.35 88.55 131.175 93.5812 131.175 98.6125C131.175 99.6187 131.175 101.296 130.763 102.973C131.588 102.973 147.675 88.8854 128.7 77.1458C128.7 77.1458 140.25 81.5062 140.662 90.2271C141.075 97.2708 137.362 102.973 136.537 103.979C136.95 103.979 145.2 106.998 145.612 106.998C147.262 106.998 150.562 105.992 150.562 105.992C150.975 104.985 152.213 102.302 152.213 101.296C155.1 93.5812 148.087 81.1708 141.487 73.4562Z" fill="#263238"/>
<path d="M89.1001 51.3188C92.0617 51.3188 94.4626 48.3153 94.4626 44.6104C94.4626 40.9055 92.0617 37.9021 89.1001 37.9021C86.1384 37.9021 83.7375 40.9055 83.7375 44.6104C83.7375 48.3153 86.1384 51.3188 89.1001 51.3188Z" fill="#ECEFF1"/>
<path d="M107.663 51.9896C111.535 51.9896 114.675 48.5357 114.675 44.275C114.675 40.0144 111.535 36.5604 107.663 36.5604C103.79 36.5604 100.65 40.0144 100.65 44.275C100.65 48.5357 103.79 51.9896 107.663 51.9896Z" fill="#ECEFF1"/>
<path d="M92.0957 45.0694C91.7529 42.864 90.1924 41.208 88.6103 41.3707C87.0282 41.5333 86.0235 43.4529 86.3663 45.6583C86.7091 47.8637 88.2696 49.5197 89.8517 49.3571C91.4339 49.1945 92.4385 47.2748 92.0957 45.0694Z" fill="#212121"/>
<path d="M107.25 49.9771C109.528 49.9771 111.375 48.0248 111.375 45.6166C111.375 43.2085 109.528 41.2562 107.25 41.2562C104.972 41.2562 103.125 43.2085 103.125 45.6166C103.125 48.0248 104.972 49.9771 107.25 49.9771Z" fill="#212121"/>
<path d="M162.112 119.408C160.462 118.738 157.575 117.731 155.1 114.713C153.862 113.036 154.275 108.34 152.213 106.327C150.975 104.986 149.325 105.656 148.912 105.656C145.2 106.327 136.538 111.023 130.763 105.656C129.938 104.985 128.7 103.979 126.638 103.979C124.575 103.979 123.75 104.65 122.925 105.992C122.1 107.333 122.1 108.34 122.1 111.694C122.1 114.377 122.1 117.396 121.688 119.744C120.862 125.446 119.625 128.8 119.625 132.154C119.625 135.844 120.863 138.192 122.513 139.198C123.75 140.204 125.813 140.875 130.35 140.875C134.888 140.875 137.775 139.533 140.662 137.186C142.725 135.508 144.375 134.838 150.15 131.483C154.688 129.135 161.7 126.117 162.938 125.11C163.763 124.44 165 124.104 165 122.092C165 120.415 163.35 119.744 162.112 119.408Z" fill="#FFC107"/>
<path d="M79.2 120.415C75.075 115.048 74.6625 114.042 71.775 110.688C69.3 107.333 63.9375 100.96 60.6375 100.96C58.1625 100.96 56.925 101.967 55.275 103.308C53.625 104.65 51.975 107.669 49.0875 109.346C46.6125 111.023 39.6 110.688 37.95 112.7C36.3 114.713 39.6 117.731 39.6 122.763C39.6 124.775 37.5375 126.117 37.125 127.458C36.7125 129.135 36.3 130.142 37.125 131.483C38.775 133.496 40.8375 134.167 54.8625 136.515C62.2875 137.856 69.3 141.21 73.8375 141.546C78.375 141.881 86.2125 141.546 86.2125 132.49C86.625 127.123 82.9125 125.781 79.2 120.415Z" fill="#FFC107"/>
<path d="M87.0375 59.7042C84.5625 58.3625 82.5 57.0209 82.5 55.0084C82.5 52.9959 84.15 52.325 86.625 50.648C87.0375 50.3125 91.575 46.9584 96.1125 46.9584C100.65 46.9584 106.013 49.3063 108.075 49.9771C111.788 50.648 115.5 51.3188 115.087 53.6667C114.675 57.0209 114.263 57.6917 110.138 59.3688C107.25 60.0396 101.887 63.7292 98.175 63.7292C96.525 63.7292 94.05 63.7292 92.4 63.3938C91.1625 63.0584 89.1 61.3813 87.0375 59.7042Z" fill="#FFC107"/>
<path d="M86.2124 57.0208C87.0374 57.6917 88.275 58.3625 89.5125 58.6979C90.3375 59.0333 91.575 59.3687 91.575 59.3687H95.2875C97.35 59.3687 100.237 58.6979 103.125 57.3562C106.012 56.35 106.425 55.6792 108.487 55.0083C110.55 54.0021 112.612 52.9958 111.787 52.6604C110.962 52.325 110.137 52.6604 107.25 54.0021C104.775 55.3437 102.712 56.0146 100.237 57.0208C98.9999 57.3562 97.3499 58.0271 96.1124 58.0271C94.8749 58.0271 93.6374 58.0271 92.3999 58.0271C91.1624 58.0271 90.3375 57.6917 89.1 57.3562C88.275 57.0208 87.8625 56.6854 87.45 56.6854C86.625 56.35 84.9749 55.0083 84.1499 54.6729C84.1499 54.6729 83.3249 54.6729 83.7374 55.0083C84.9749 56.0146 85.3874 56.35 86.2124 57.0208Z" fill="#634703"/>
<path d="M98.5875 49.6417C99 50.3125 99.825 50.3125 100.238 50.648C100.65 50.9834 101.063 50.9834 101.063 50.9834C101.475 50.648 101.063 49.9771 100.65 49.9771C100.65 49.3063 98.5875 49.3063 98.5875 49.6417Z" fill="#634703"/>
<path d="M91.9875 50.3125C91.9875 50.6479 92.8126 50.9834 92.8126 50.6479C93.2251 50.3125 93.6375 49.9771 94.05 49.9771C94.875 49.6417 94.4626 49.3063 93.2251 49.3063C92.4001 49.6417 92.4 49.9771 91.9875 50.3125Z" fill="#634703"/>
<path d="M132 109.681V110.688C132.825 112.029 134.887 112.365 136.537 112.365C139.012 112.365 141.487 111.023 142.725 109.681C142.725 109.346 143.137 109.01 143.55 108.675C144.375 107.669 144.787 106.998 145.2 106.663C145.2 106.663 144.787 106.327 144.787 105.992C144.375 105.321 143.137 104.65 141.487 104.315C140.25 103.979 138.187 103.644 137.362 103.644C133.65 103.308 131.587 104.315 130.35 105.321C130.35 105.321 130.762 105.321 130.762 105.656C131.587 106.327 132 106.998 132 108.004C132.412 108.675 132 109.01 132 109.681Z" fill="#455A64"/>
</svg>
