<svg width="143" height="138" viewBox="0 0 143 138" fill="none" xmlns="http://www.w3.org/2000/svg">
<path d="M140.303 62.8523L77.8669 2.60277C74.2738 -0.867751 68.4418 -0.867751 64.844 2.60277L51.8792 15.1145L68.3257 30.9862C72.1478 29.74 76.5301 30.5759 79.5771 33.5164C82.6383 36.4751 83.4981 40.7406 82.1754 44.4413L98.0256 59.7376C101.86 58.4626 106.285 59.2879 109.348 62.2481C113.628 66.3773 113.628 73.07 109.348 77.2022C105.066 81.3344 98.1308 81.3344 93.8473 77.2022C90.6277 74.0921 89.8322 69.5283 91.4624 65.7005L76.6807 51.4353L76.6791 88.975C77.7225 89.4747 78.7079 90.1394 79.5771 90.9753C83.8574 95.1045 83.8574 101.797 79.5771 105.932C75.2953 110.063 68.3571 110.063 64.0815 105.932C59.8012 101.797 59.8012 95.1045 64.0815 90.9753C65.139 89.9562 66.3628 89.1855 67.6683 88.6676V50.7781C66.3628 50.2633 65.1406 49.4971 64.0815 48.4705C60.8383 45.3452 60.0585 40.7527 61.7201 36.9097L45.509 21.2621L2.69832 62.5737C-0.89944 66.0472 -0.89944 71.6754 2.69832 75.146L65.1343 135.397C68.7289 138.867 74.5594 138.867 78.1587 135.397L140.303 75.4261C143.899 71.954 143.899 66.3228 140.303 62.8523Z" fill="#DE4C36"/>
</svg>
